<?xml version="1.0" encoding="UTF-8"?>
<!DOCTYPE svg PUBLIC "-//W3C//DTD SVG 1.1//EN" "http://www.w3.org/Graphics/SVG/1.1/DTD/svg11.dtd">
<svg xmlns="http://www.w3.org/2000/svg" version="1.1" width="512px" height="512px" style="shape-rendering:geometricPrecision; text-rendering:geometricPrecision; image-rendering:optimizeQuality; fill-rule:evenodd; clip-rule:evenodd" xmlns:xlink="http://www.w3.org/1999/xlink">
<g><path style="opacity:0.973" fill="#000000" d="M 237.5,20.5 C 332.121,17.389 405.288,55.0556 457,133.5C 496.812,204.367 501.145,277.367 470,352.5C 434.75,425.726 377.25,470.559 297.5,487C 201.108,500.444 123.275,468.944 64,392.5C 20.5943,328.446 9.59427,259.113 31,184.5C 61.1538,99.0113 120.321,45.8446 208.5,25C 218.273,23.241 227.939,21.741 237.5,20.5 Z M 254.5,63.5 C 335.22,67.1169 393.72,104.784 430,176.5C 450.106,224.507 451.772,273.174 435,322.5C 401.158,401.133 341.324,442.8 255.5,447.5C 186.348,445.019 132.515,415.353 94,358.5C 61.5281,304.714 55.5281,248.048 76,188.5C 104.519,119.979 155.352,79.1455 228.5,66C 237.315,65.1275 245.982,64.2942 254.5,63.5 Z"/></g>
<g><path style="opacity:0.946" fill="#000000" d="M 248.5,127.5 C 265.213,125.006 274.879,132.006 277.5,148.5C 276.444,162.223 269.11,169.557 255.5,170.5C 241.89,169.557 234.556,162.223 233.5,148.5C 234.268,138.409 239.268,131.409 248.5,127.5 Z"/></g>
<g><path style="opacity:0.965" fill="#000000" d="M 249.5,212.5 C 263.881,210.737 273.047,216.737 277,230.5C 277.667,275.833 277.667,321.167 277,366.5C 272.469,380.355 262.969,385.855 248.5,383C 240.808,379.977 235.975,374.477 234,366.5C 233.333,321.167 233.333,275.833 234,230.5C 235.839,221.503 241.006,215.503 249.5,212.5 Z"/></g>
</svg>
