<?xml version="1.0" encoding="UTF-8"?>
<svg version="1.1" xmlns="http://www.w3.org/2000/svg" width="512" height="512">
<path d="M0 0 C14.20906947 11.5413588 23.1067161 29.23925896 25.31640625 47.1953125 C27.2809069 67.66115494 22.3327166 86.0514355 9.8515625 102.41796875 C6.23609275 106.55712897 2.37951472 110.42425435 -1.52362061 114.28762817 C-2.66284275 115.43003418 -3.80118849 116.57331468 -4.93874192 117.71738231 C-8.03947513 120.83083783 -11.15241209 123.93182551 -14.26764846 127.03076029 C-17.63546474 130.38534107 -20.99165157 133.75152371 -24.34934998 137.1162262 C-30.91598057 143.69290647 -37.49318737 150.25890937 -44.0741097 156.82128532 C-51.73844608 164.46480049 -59.3922636 172.11881294 -67.0457094 179.77323018 C-80.69722309 193.42574361 -94.35835573 207.06859112 -108.02490234 220.70605469 C-121.28836097 233.94130268 -134.54475819 247.18357076 -147.79345703 260.43359375 C-148.61051741 261.25073405 -149.4275778 262.06787434 -150.26939759 262.90977646 C-151.08504462 263.7255042 -151.90069164 264.54123194 -152.74105525 265.3816787 C-167.8302847 280.47228684 -182.92607888 295.5563127 -198.02495323 310.63727025 C-203.36519653 315.97147755 -208.70348195 321.30763951 -214.04116058 326.64441299 C-220.53909449 333.14098433 -227.04078555 339.63376889 -233.54723015 346.12181695 C-236.86766144 349.43300092 -240.18648782 352.74575188 -243.50104332 356.06281853 C-246.53256864 359.09652925 -249.56864635 362.12560358 -252.60849515 365.15097331 C-253.70965448 366.24849784 -254.80912302 367.34772182 -255.90675816 368.4487709 C-257.39456756 369.94069615 -258.88834101 371.42638019 -260.38381577 372.91061592 C-261.21334503 373.73873634 -262.04287429 374.56685675 -262.89754081 375.42007172 C-269.21754037 381.02970649 -277.3261059 380.54200505 -285.38110352 380.74682617 C-286.16106689 380.76969193 -286.94103027 380.79255768 -287.74462891 380.81611633 C-290.29710055 380.88957214 -292.84968028 380.95700363 -295.40234375 381.0234375 C-297.19018134 381.07160751 -298.97801803 381.11981056 -300.76585388 381.16804504 C-304.50195228 381.26763841 -308.2381247 381.36366383 -311.97436523 381.45776367 C-316.75148021 381.57881541 -321.52810128 381.71363754 -326.30474949 381.85174084 C-329.99267593 381.95600591 -333.68080692 382.05048438 -337.36906242 382.14229774 C-339.1301322 382.18777051 -340.8911134 382.23682614 -342.65197945 382.28960228 C-345.1162369 382.36248255 -347.58046984 382.42152557 -350.04516602 382.47729492 C-350.76484055 382.50161591 -351.48451508 382.52593689 -352.22599792 382.55099487 C-358.19948433 382.66204119 -363.20243307 382.01015419 -367.8984375 378.16796875 C-372.14956594 372.9721451 -373.53057385 368.96955103 -373.38671875 362.26953125 C-373.37441727 361.51805817 -373.36211578 360.76658508 -373.34944153 359.99234009 C-373.31695561 358.20279417 -373.27643836 356.41338481 -373.2300415 354.62414551 C-373.15367789 351.62386093 -373.09282546 348.6235552 -373.03683281 345.62282944 C-372.89565643 338.07277622 -372.72061774 330.52398726 -372.52151299 322.97524643 C-372.41583734 318.96361782 -372.31569992 314.95203477 -372.22924805 310.93994141 C-372.14435036 307.00252521 -372.04574474 303.0656733 -371.93743324 299.12883377 C-371.8988377 297.64512243 -371.86492678 296.1612808 -371.83601952 294.67734909 C-371.79467945 292.60642194 -371.73565106 290.53667383 -371.67260742 288.46630859 C-371.64373947 287.29482269 -371.61487152 286.12333679 -371.58512878 284.91635132 C-370.29478391 274.57925468 -364.612172 269.16803797 -357.51774597 262.15235901 C-356.3980038 261.02685208 -355.27935336 259.90025814 -354.16170007 258.77267689 C-351.09405914 255.68418658 -348.01104603 252.61145661 -344.9252311 249.54113901 C-341.59697776 246.22420367 -338.28315168 242.89290756 -334.96743774 239.56344604 C-328.47060438 233.04437629 -321.96032072 226.53890098 -315.44512071 220.03819222 C-310.14674215 214.75111007 -304.85326951 209.45916236 -299.56325722 204.16370964 C-298.81003219 203.40971845 -298.05680716 202.65572725 -297.28075713 201.87888784 C-295.75048981 200.34702185 -294.22023369 198.81514466 -292.68998865 197.2832564 C-278.33700527 182.91601283 -263.96873333 168.56413757 -249.59519372 154.21746331 C-237.2775138 141.9220951 -224.97296388 129.6137149 -212.67797852 117.2956543 C-198.39160686 102.98248242 -184.09710312 88.67751269 -169.78966218 74.38539928 C-168.26162808 72.85895785 -166.73360438 71.33250601 -165.2055912 69.80604362 C-164.07797045 68.67957994 -164.07797045 68.67957994 -162.92756948 67.53035941 C-157.64557848 62.25267478 -152.36938976 56.9692325 -147.09544945 51.6835041 C-140.65822924 45.23221225 -134.21207762 38.79000393 -127.75456419 32.35902257 C-124.46356178 29.08109977 -121.17656984 25.79941945 -117.90042686 22.50663948 C-114.89375247 19.48492909 -111.8755285 16.47525269 -108.8481696 13.47426998 C-107.76226598 12.39389429 -106.68043189 11.30940708 -105.60343292 10.22015435 C-76.04387402 -19.64945034 -34.70164128 -25.55302676 0 0 Z M-87.3359375 39.35546875 C-88.48928247 40.52893114 -89.64357395 41.70146402 -90.79882812 42.87304688 C-93.59303337 45.71078155 -96.37421792 48.56069827 -99.1484375 51.41796875 C-97.5522746 55.31091347 -95.03937938 57.78077186 -92.08789062 60.73730469 C-91.57387192 61.25482803 -91.05985321 61.77235138 -90.53025818 62.30555725 C-88.83505474 64.00954191 -87.13266592 65.70613207 -85.4296875 67.40234375 C-84.24877117 68.58460735 -83.06815187 69.76716771 -81.88781738 70.95001221 C-79.4162443 73.42453131 -76.94109576 75.89540261 -74.46337891 78.36376953 C-71.28202363 81.53370565 -68.10976373 84.71256857 -64.94010162 87.89419174 C-62.50569661 90.33580811 -60.0665676 92.7726602 -57.6259613 95.20807648 C-56.45386265 96.37883792 -55.28325624 97.55109524 -54.114151 98.72484589 C-52.48387405 100.36017885 -50.84736428 101.98900169 -49.20898438 103.61621094 C-48.2779187 104.54568542 -47.34685303 105.47515991 -46.38757324 106.43280029 C-44.39775299 108.63910119 -44.39775299 108.63910119 -42.1484375 108.41796875 C-40.66952273 106.95074179 -40.66952273 106.95074179 -39.125 105.01171875 C-36.37321874 101.77399372 -33.52062603 98.73479197 -30.484375 95.76171875 C-29.67226563 94.96636719 -28.86015625 94.17101562 -28.0234375 93.3515625 C-26.35275488 91.72525739 -24.67824841 90.10287153 -23 88.484375 C-13.43097375 79.08295908 -7.92431965 70.20101879 -7.7109375 56.54296875 C-7.81878357 43.98473115 -12.37848382 35.7381896 -20.734375 26.703125 C-27.97465439 19.76305232 -38.82393219 16.00489157 -48.7890625 16.2109375 C-65.66840573 17.69207192 -76.12783862 27.80135021 -87.3359375 39.35546875 Z M-127.73385715 79.69583988 C-128.48266921 80.42710246 -129.23148126 81.15836504 -130.00298458 81.91178709 C-130.82913972 82.72876127 -131.65529485 83.54573546 -132.50648499 84.38746643 C-133.38136847 85.24511862 -134.25625196 86.10277081 -135.15764707 86.98641247 C-137.5949129 89.37816525 -140.0275178 91.77448595 -142.4581095 94.17301047 C-144.54153017 96.22740202 -146.62857795 98.27808961 -148.71559174 100.32882989 C-168.52909223 119.79951293 -188.25638901 139.35822373 -207.96729374 158.93269444 C-210.536387 161.48369094 -213.10564085 164.03452557 -215.67504883 166.58520508 C-216.31364708 167.2191635 -216.95224532 167.85312192 -217.61019503 168.5062912 C-227.93581842 178.75451602 -238.30246435 188.96021566 -248.68591303 199.14981175 C-259.35260691 209.61900742 -269.97687492 220.12985205 -280.56263727 230.68088096 C-286.50456576 236.60105367 -292.46376316 242.50122316 -298.47191048 248.35424995 C-303.59437382 253.34450123 -308.67742542 258.37108439 -313.71429784 263.44777239 C-316.28221976 266.0336487 -318.86401188 268.59900946 -321.49781036 271.11790466 C-334.52533336 283.26013933 -334.52533336 283.26013933 -339.82876629 299.66672891 C-339.8863967 303.41673802 -339.71963696 307.08835712 -339.36444652 310.82100761 C-339.01762301 314.99068152 -339.16014118 319.14170944 -339.24609375 323.3203125 C-339.24826342 326.33212983 -339.22826714 329.34370773 -339.2109375 332.35546875 C-339.20589245 333.93684748 -339.20133506 335.51822784 -339.19726562 337.09960938 C-339.18654344 340.87243135 -339.16946028 344.64518832 -339.1484375 348.41796875 C-334.33704334 348.45826518 -329.52690609 348.49595326 -324.71547794 348.44425011 C-318.3326929 348.37590068 -312.06714567 348.45600104 -305.6971283 348.8800354 C-293.53883418 349.44862064 -283.12708872 349.60952907 -273.19721317 341.63457298 C-268.94816683 337.73462771 -264.97778504 333.63639885 -261.09505963 329.37347746 C-258.73733914 326.82041224 -256.28981555 324.35607946 -253.85179138 321.8800354 C-249.26605408 317.1968968 -244.76156066 312.44349862 -240.28374857 307.65730917 C-235.20207484 302.23294397 -230.03693028 296.89131023 -224.86202919 291.55604243 C-218.53773664 285.03553836 -212.22524864 278.50516794 -205.98158264 271.90731812 C-205.10957214 270.98644409 -204.23756165 270.06557007 -203.33912659 269.11679077 C-201.72647832 267.41070717 -200.1168188 265.70179067 -198.51095581 263.98931885 C-194.62102695 259.87367302 -190.64032961 256.04836671 -186.34060574 252.36713409 C-181.52671361 248.0868642 -177.04571168 243.4444943 -172.5 238.88305664 C-171.34634033 237.7291144 -170.19245943 236.57539329 -169.03837585 235.421875 C-165.92720234 232.31098673 -162.81910745 229.19703937 -159.71158218 226.08250737 C-156.45560143 222.8202475 -153.19676177 219.56084603 -149.93823242 216.3011322 C-143.7776517 210.13745156 -137.61962312 203.97122772 -131.46252155 197.80407184 C-124.44873614 190.77908361 -117.43208873 183.75695695 -110.41520691 176.73506176 C-95.98977771 162.29919851 -81.5679222 147.85976961 -67.1484375 133.41796875 C-68.9402923 129.57576276 -71.19997488 127.11278469 -74.20898438 124.09863281 C-74.98001244 123.32234779 -74.98001244 123.32234779 -75.76661682 122.53038025 C-77.46182026 120.82639559 -79.16420908 119.12980543 -80.8671875 117.43359375 C-82.04810383 116.25133015 -83.22872313 115.06876979 -84.40905762 113.88592529 C-86.8806307 111.41140619 -89.35577924 108.94053489 -91.83349609 106.47216797 C-95.01485137 103.30223185 -98.18711127 100.12336893 -101.35677338 96.94174576 C-103.79117839 94.50012939 -106.2303074 92.0632773 -108.6709137 89.62786102 C-109.84301235 88.45709958 -111.01361876 87.28484226 -112.182724 86.11109161 C-113.81300095 84.47575865 -115.44951072 82.84693581 -117.08789062 81.21972656 C-118.0189563 80.29025208 -118.95002197 79.36077759 -119.90930176 78.40313721 C-123.58794242 75.14173538 -124.59127582 76.60734556 -127.73385715 79.69583988 Z " fill="#000000" transform="translate(395.1484375,43.58203125)"/>
<path d="M0 0 C0.77810104 -0.00465992 1.55620208 -0.00931984 2.35788193 -0.01412097 C4.96888774 -0.0260853 7.57937458 -0.01667008 10.19038486 -0.00736332 C12.07973614 -0.0115356 13.96908491 -0.01701254 15.85842901 -0.02368313 C21.05332921 -0.03817021 26.24807119 -0.03388281 31.44298017 -0.02651632 C37.04430319 -0.02179504 42.64559146 -0.03428526 48.24690342 -0.04453373 C59.22138712 -0.06174732 70.19581363 -0.06255645 81.17030733 -0.05732083 C90.0883986 -0.05328276 99.00647295 -0.05471836 107.92456341 -0.06006908 C109.19284486 -0.06081751 110.4611263 -0.06156593 111.76784052 -0.06233703 C114.34417721 -0.06386847 116.92051388 -0.06540682 119.49685056 -0.066952 C136.79989271 -0.07678374 154.10292496 -0.08094134 171.40596771 -0.07332611 C172.08264509 -0.07302894 172.75932246 -0.07273176 173.45650521 -0.07242559 C178.95169687 -0.06997662 184.44688846 -0.06736505 189.94208005 -0.06474145 C211.37852085 -0.05463837 232.81488333 -0.06299522 254.25131321 -0.086236 C278.33316185 -0.1123026 302.41495182 -0.12510866 326.49681956 -0.11804825 C339.24859076 -0.11455136 352.00029764 -0.11681911 364.75205898 -0.13429928 C375.60702473 -0.14899448 386.46188086 -0.1496918 397.3168444 -0.13222837 C402.85692595 -0.12369403 408.39681145 -0.12162817 413.93688297 -0.13687992 C419.00668069 -0.15066444 424.07611322 -0.14604441 429.14588947 -0.12664068 C430.98162224 -0.12286116 432.81738383 -0.12585847 434.65309107 -0.13625234 C437.14622928 -0.14936673 439.63809672 -0.1378893 442.13117981 -0.12025452 C442.84586584 -0.12990503 443.56055187 -0.13955554 444.29689506 -0.14949849 C450.80930719 -0.05475084 455.04091841 2.23919667 459.56601048 6.88031673 C461.87431753 12.05092453 461.88639945 16.80715339 461.12851048 22.38031673 C458.88585003 27.03176062 455.47584393 31.19283221 450.44494325 32.97757125 C447.15467424 33.54963231 443.89402415 33.51997173 440.56558609 33.5117445 C439.79654624 33.51379713 439.02750638 33.51584977 438.23516229 33.5179646 C435.64309245 33.52364543 433.05107557 33.52217602 430.45900059 33.52075863 C428.58787723 33.52334164 426.71675442 33.52635462 424.84563237 33.52976203 C419.6918668 33.53784272 414.53811514 33.53962219 409.38434398 33.5403595 C403.83071415 33.54220817 398.27709157 33.54975452 392.72346592 33.55649471 C380.57486087 33.57008569 368.42625912 33.57610382 356.27764773 33.58050537 C348.69541113 33.58326625 341.1131758 33.58750329 333.53094006 33.59200954 C312.54726818 33.60420272 291.56359699 33.61453765 270.57992172 33.61788464 C269.22295799 33.61810627 267.86599427 33.61832805 266.50903054 33.61854999 C265.14878229 33.61877063 263.78853403 33.61899111 262.42828578 33.61921144 C259.69937305 33.61965399 256.97046031 33.6201011 254.24154758 33.62055111 C253.56493586 33.6206605 252.88832414 33.62076989 252.19120903 33.6208826 C230.24703298 33.62451405 208.30288994 33.64043772 186.35872654 33.66374147 C163.16095355 33.6883315 139.9631987 33.70205034 116.76541024 33.70325255 C104.11869139 33.70417022 91.47201577 33.70994568 78.8253088 33.72807217 C68.05815067 33.7434501 57.29104914 33.74860723 46.52388211 33.74033406 C41.02839635 33.73641951 35.53302466 33.73739642 30.03755283 33.75139141 C25.00844656 33.76408187 19.97954064 33.76297564 14.95043484 33.7508007 C13.12944405 33.74883527 11.30843929 33.75196094 9.48746815 33.76064506 C7.01438734 33.77169396 4.54201906 33.7642803 2.06895828 33.75225353 C1.00569777 33.76364632 1.00569777 33.76364632 -0.07904276 33.77526927 C-5.58247633 33.71739563 -10.40147932 32.55680554 -14.61367702 28.84516048 C-19.2308987 22.61987195 -19.74130667 18.10982817 -18.87148952 10.38031673 C-17.20893553 6.26692884 -15.0406735 4.08006833 -11.25847715 1.81644005 C-7.38753358 0.17511362 -4.12567955 -0.03876755 0 0 Z " fill="#000000" transform="translate(34.87148952484131,451.61968326568604)"/>
</svg>
