<?xml version="1.0" encoding="UTF-8"?>
<svg version="1.1" xmlns="http://www.w3.org/2000/svg" width="512" height="512">
<path d="M0 0 C10.69160852 9.01449346 16.30924286 20.15558928 19.02734375 33.74609375 C20.23880478 49.49508715 16.39012553 64.09198048 6.08984375 76.30859375 C-4.38721434 87.22365594 -17.37274718 92.1996089 -32.28515625 93.24609375 C-46.70255019 92.96722733 -60.01418338 87.54604606 -70.3984375 77.61328125 C-79.94060729 66.86831695 -85.21277079 53.84751536 -84.93359375 39.4140625 C-83.62014616 24.35806146 -78.12422551 11.12136795 -66.72265625 0.99609375 C-46.38224966 -13.96608503 -20.79090265 -15.30234299 0 0 Z " fill="#000000" transform="translate(288.72265625,215.00390625)"/>
<path d="M0 0 C10.50879289 9.95833231 16.03364863 22.3112857 16.796875 36.68481445 C17.15333025 51.15381307 12.17914965 63.51322901 2.97265625 74.4921875 C-4.60784365 82.40574978 -16.25334891 89.13234081 -27.38134766 89.97363281 C-44.04907654 90.28024772 -58.59901962 88.6565072 -71.49609375 76.75390625 C-82.28138908 64.81561721 -87.87630684 51.48759178 -87.125 35.1875 C-86.24297655 21.17602051 -80.2440761 9.36439281 -70.1875 -0.375 C-49.40956613 -17.85541194 -20.6564303 -17.41620594 0 0 Z " fill="#000000" transform="translate(291.25,422.1875)"/>
<path d="M0 0 C1.32825806 0.00845947 1.32825806 0.00845947 2.68334961 0.01708984 C15.21150615 0.25035444 27.02891575 4.74927646 36.37109375 13.37109375 C46.45235189 24.53008104 52.63251785 37.56132721 52.3359375 52.89453125 C51.01265159 68.06330867 45.45847825 81.01420559 34.125 91.3125 C22.1498748 100.55552256 9.11789848 104.27632919 -5.875 103.3125 C-20.53801902 101.25269495 -32.79939898 94.46198408 -41.9140625 82.67578125 C-50.71947586 69.54260089 -53.7042451 55.45150712 -50.75 39.9375 C-47.0427004 25.27454823 -38.86717531 14.09535262 -25.875 6.3125 C-17.54841785 1.447702 -9.55801753 -0.06360502 0 0 Z " fill="#000000" transform="translate(255.875,-0.3125)"/>
</svg>
