<?xml version="1.0" encoding="UTF-8"?>
<!DOCTYPE svg PUBLIC "-//W3C//DTD SVG 1.1//EN" "http://www.w3.org/Graphics/SVG/1.1/DTD/svg11.dtd">
<svg xmlns="http://www.w3.org/2000/svg" version="1.1" width="1728px" height="1296px" style="shape-rendering:geometricPrecision; text-rendering:geometricPrecision; image-rendering:optimizeQuality; fill-rule:evenodd; clip-rule:evenodd" xmlns:xlink="http://www.w3.org/1999/xlink">
<g><path style="opacity:0.993" fill="#204890" d="M 504.5,215.5 C 669.501,215.167 834.501,215.5 999.5,216.5C 1079.97,358.129 1160.63,499.629 1241.5,641C 1160.17,641.667 1078.83,641.667 997.5,641C 954.751,569.501 911.751,498.167 868.5,427C 786.167,426.667 703.833,426.333 621.5,426C 581.569,356.3 542.569,286.133 504.5,215.5 Z"/></g>
<g><path style="opacity:0.995" fill="#204890" d="M 1120.5,215.5 C 1201.83,215.333 1283.17,215.5 1364.5,216C 1446.63,357.085 1528.63,498.251 1610.5,639.5C 1528.88,781.245 1446.88,922.745 1364.5,1064C 1203.83,1064.68 1043.17,1065.01 882.5,1065C 840.167,994 797.833,923 755.5,852C 796.622,780.92 838.122,710.087 880,639.5C 920.626,708.585 961.126,777.751 1001.5,847C 1081.17,847.667 1160.83,847.667 1240.5,847C 1282.54,778.416 1324.21,709.583 1365.5,640.5C 1285.53,502.037 1205.37,363.704 1125,225.5C 1123.19,222.222 1121.69,218.889 1120.5,215.5 Z"/></g>
<g><path style="opacity:0.994" fill="#204890" d="M 409.5,245.5 C 410.376,245.369 411.043,245.702 411.5,246.5C 449.184,319.87 486.851,393.203 524.5,466.5C 480.548,534.234 436.214,601.734 391.5,669C 459.777,800.387 528.443,931.554 597.5,1062.5C 530.335,1063.32 463.168,1063.99 396,1064.5C 383.5,1064.17 371,1063.83 358.5,1063.5C 288.088,929.009 217.422,794.675 146.5,660.5C 233.928,521.97 321.594,383.636 409.5,245.5 Z"/></g>
</svg>
