<?xml version="1.0" encoding="UTF-8"?>
<svg version="1.1" xmlns="http://www.w3.org/2000/svg" width="92" height="92">
<path d="M0 0 C4.96245321 4.14673461 9.56618419 8.47717744 14.0703125 13.11328125 C15.3914853 14.45681478 16.71311315 15.79990096 18.03515625 17.14257812 C20.09147285 19.23613433 22.14451047 21.33257101 24.18994141 23.43676758 C26.18267345 25.48389005 28.18780134 27.518164 30.1953125 29.55078125 C31.10798386 30.4991259 31.10798386 30.4991259 32.03909302 31.46662903 C32.90556961 32.33840034 32.90556961 32.33840034 33.78955078 33.2277832 C34.29028107 33.74041214 34.79101135 34.25304108 35.30691528 34.78120422 C37.57398744 36.4131946 39.21369837 36.84623562 42 37 C44.07860547 35.86604104 44.07860547 35.86604104 45.85791016 34.01538086 C46.54604797 33.36447479 47.23418579 32.71356873 47.94317627 32.04293823 C48.6219281 31.36876862 49.30067993 30.694599 50 30 C50.60930359 29.40792755 51.21860718 28.8158551 51.84637451 28.20584106 C53.67526654 26.40726476 55.47661237 24.58449042 57.2734375 22.75390625 C58.60534186 21.4093795 59.93737672 20.06498201 61.26953125 18.72070312 C63.33863931 16.62660345 65.40609068 14.53091323 67.47119141 12.43286133 C69.48430318 10.38973486 71.50343772 8.35271953 73.5234375 6.31640625 C74.45462906 5.36502525 74.45462906 5.36502525 75.40463257 4.39442444 C76.8989061 2.89136506 78.44489709 1.44003327 80 0 C80.66 0 81.32 0 82 0 C82.07593214 7.77784995 82.12855012 15.55560468 82.16479492 23.33374023 C82.1799012 25.98091199 82.2003873 28.62805864 82.22631836 31.27514648 C82.26261991 35.07542101 82.27970803 38.87536526 82.29296875 42.67578125 C82.30845261 43.86335526 82.32393646 45.05092926 82.33988953 46.27449036 C82.34011612 47.37540512 82.34034271 48.47631989 82.34057617 49.6105957 C82.35056892 51.06620659 82.35056892 51.06620659 82.36076355 52.55122375 C82 55 82 55 80.938797 56.81059265 C77.97920629 58.62623345 75.00857794 58.43393997 71.63867188 58.41992188 C70.89202774 58.42839142 70.14538361 58.43686096 69.37611389 58.44558716 C66.90681961 58.46899639 64.43814687 58.46997853 61.96875 58.46875 C60.25386301 58.47584854 58.5389784 58.48354709 56.82409668 58.49182129 C53.22950639 58.50527459 49.63513578 58.50683079 46.04052734 58.50097656 C41.42980589 58.49507543 36.8201356 58.5256843 32.20961761 58.56609344 C28.66829735 58.59191684 25.12723213 58.59485286 21.58583069 58.59120178 C19.88572036 58.59289766 18.18559884 58.602585 16.48558044 58.62034607 C14.11010922 58.64243485 11.73679073 58.63288866 9.36132812 58.61523438 C8.65682022 58.62849762 7.95231232 58.64176086 7.22645569 58.65542603 C5.26379395 58.62145996 5.26379395 58.62145996 2 58 C-0.88227058 54.71937346 -1.37360222 51.95578447 -1.35644531 47.67480469 C-1.35944641 46.63733093 -1.36244751 45.59985718 -1.36553955 44.53094482 C-1.35319275 43.42245178 -1.34084595 42.31395874 -1.328125 41.171875 C-1.32625183 40.02712708 -1.32437866 38.88237915 -1.32244873 37.70294189 C-1.31573634 35.2889107 -1.30183808 32.87489023 -1.28125 30.4609375 C-1.24999914 26.74989817 -1.24026885 23.03928307 -1.234375 19.328125 C-1.22520892 16.98436978 -1.21483441 14.6406189 -1.203125 12.296875 C-1.19887512 11.18028503 -1.19462524 10.06369507 -1.19024658 8.91326904 C-1.18063904 7.88840393 -1.17103149 6.86353882 -1.16113281 5.80761719 C-1.15430481 4.90114441 -1.14747681 3.99467163 -1.14044189 3.06072998 C-1 1 -1 1 0 0 Z M13.9375 39.8125 C13.08349609 40.64587891 12.22949219 41.47925781 11.34960938 42.33789062 C10.54201172 43.14033203 9.73441406 43.94277344 8.90234375 44.76953125 C8.15460693 45.50792236 7.40687012 46.24631348 6.63647461 47.00708008 C4.68269591 48.95663093 4.68269591 48.95663093 5 52 C9.1724031 51.48993402 11.08024151 50.40495389 13.98828125 47.40234375 C14.69404297 46.68369141 15.39980469 45.96503906 16.12695312 45.22460938 C16.84818359 44.46986328 17.56941406 43.71511719 18.3125 42.9375 C19.05306641 42.17888672 19.79363281 41.42027344 20.55664062 40.63867188 C22.38043834 38.76780841 24.19424304 36.88825508 26 35 C25.34 33.68 24.68 32.36 24 31 C20.81168629 31 16.10844367 37.65472354 13.9375 39.8125 Z M57 32 C56.60375652 35.86237414 56.60375652 35.86237414 58.42114258 37.92285156 C59.39796997 38.89689941 59.39796997 38.89689941 60.39453125 39.890625 C61.10287109 40.59960938 61.81121094 41.30859375 62.54101562 42.0390625 C63.29060547 42.76867188 64.04019531 43.49828125 64.8125 44.25 C65.55048828 44.99507812 66.28847656 45.74015625 67.04882812 46.5078125 C70.83278773 50.75945525 70.83278773 50.75945525 76 52 C75.42214146 48.36832308 74.05312904 46.67805608 71.47265625 44.109375 C70.76302734 43.40039062 70.05339844 42.69140625 69.32226562 41.9609375 C68.57654297 41.23132812 67.83082031 40.50171875 67.0625 39.75 C66.32064453 39.00492188 65.57878906 38.25984375 64.81445312 37.4921875 C61.46581998 33.56785138 61.46581998 33.56785138 57 32 Z " fill="#FFFFFF" transform="translate(5,19)"/>
<path d="M0 0 C24.75 0 49.5 0 75 0 C68.25 7.875 68.25 7.875 65.47314453 10.64038086 C64.85295441 11.26049545 64.23276428 11.88061005 63.59378052 12.51951599 C62.62310135 13.48245323 62.62310135 13.48245323 61.6328125 14.46484375 C60.95322479 15.14301651 60.27363708 15.82118927 59.57345581 16.51991272 C57.42632998 18.66149141 55.27573373 20.79954529 53.125 22.9375 C51.65862227 24.39885589 50.1924742 25.86044226 48.7265625 27.32226562 C45.15369 30.88417935 41.57770316 34.44293865 38 38 C32.94306941 33.76276022 28.19158853 29.33908375 23.53515625 24.66796875 C22.85698349 23.99075272 22.17881073 23.31353668 21.48008728 22.61579895 C20.06126167 21.19764898 18.64367853 19.77825494 17.22729492 18.35766602 C15.04785248 16.17281614 12.86305718 13.99341969 10.67773438 11.81445312 C9.2965538 10.43261264 7.91568298 9.05046246 6.53515625 7.66796875 C5.87902847 7.0138652 5.2229007 6.35976166 4.54689026 5.68583679 C0 1.11498108 0 1.11498108 0 0 Z " fill="#FFFFFF" transform="translate(8,15)"/>
</svg>
