<?xml version="1.0" encoding="UTF-8"?>
<!DOCTYPE svg PUBLIC "-//W3C//DTD SVG 1.1//EN" "http://www.w3.org/Graphics/SVG/1.1/DTD/svg11.dtd">
<svg xmlns="http://www.w3.org/2000/svg" version="1.1" width="512px" height="512px" style="shape-rendering:geometricPrecision; text-rendering:geometricPrecision; image-rendering:optimizeQuality; fill-rule:evenodd; clip-rule:evenodd" xmlns:xlink="http://www.w3.org/1999/xlink">
<g><path style="opacity:0.992" fill="#fe0000" d="M 234.5,31.5 C 312.833,26.7678 377.666,53.7678 429,112.5C 477.656,175.451 491.323,245.451 470,322.5C 444.833,395.667 395.667,444.833 322.5,470C 230.927,494.242 152.427,472.409 87,404.5C 34.3683,340.689 19.035,268.689 41,188.5C 66.1667,115.333 115.333,66.1667 188.5,41C 203.746,36.7184 219.079,33.5517 234.5,31.5 Z M 254.5,135.5 C 266.237,136.404 274.071,142.404 278,153.5C 278.667,196.167 278.667,238.833 278,281.5C 269.536,298.408 257.036,302.242 240.5,293C 237.213,289.707 234.713,285.873 233,281.5C 231.874,260.031 231.374,238.531 231.5,217C 231.368,195.798 231.868,174.632 233,153.5C 236.753,143.233 243.92,137.233 254.5,135.5 Z M 248.5,325.5 C 264.518,323.251 275.352,329.584 281,344.5C 283.702,359.929 277.869,370.762 263.5,377C 243.542,380.386 231.876,372.052 228.5,352C 229.763,338.931 236.43,330.098 248.5,325.5 Z"/></g>
</svg>
