<?xml version="1.0" encoding="UTF-8"?>
<svg version="1.1" xmlns="http://www.w3.org/2000/svg" width="512" height="512">
<path d="M0 0 C0.64204757 -0.00205263 1.28409514 -0.00410527 1.94559869 -0.0062201 C4.11172837 -0.01190526 6.27779477 -0.01043099 8.44393063 -0.00901413 C10.00681775 -0.01159691 11.56970421 -0.01460983 13.13258976 -0.01801753 C17.43910693 -0.02610128 21.74560744 -0.02787787 26.0521313 -0.028615 C30.69239954 -0.03046322 35.33265909 -0.03800948 39.97292233 -0.04475021 C50.12598369 -0.05834481 60.27904112 -0.06436028 70.43211007 -0.06876087 C76.7709402 -0.07152194 83.10976881 -0.0757591 89.44859791 -0.08026505 C106.99573229 -0.09246022 124.54286544 -0.10275837 142.09000397 -0.10614014 C143.21357526 -0.1063597 144.33714655 -0.10657927 145.49476546 -0.10680549 C146.6210468 -0.10702377 147.74732814 -0.10724204 148.90773922 -0.10746694 C151.19006161 -0.1079104 153.472384 -0.10835697 155.75470638 -0.10880661 C156.88682039 -0.10902804 158.01893439 -0.10924947 159.18535488 -0.10947761 C177.52396243 -0.11342443 195.86253022 -0.13087379 214.20112241 -0.15416613 C233.02501383 -0.17788198 251.8488853 -0.19034213 270.6727919 -0.19150805 C281.24326106 -0.19242479 291.81367844 -0.19817668 302.38413334 -0.21632767 C311.38685302 -0.23173193 320.38950493 -0.23684726 329.39223529 -0.22858956 C333.98482537 -0.22468395 338.57727898 -0.22560831 343.16985226 -0.23964691 C347.37758047 -0.25239129 351.58506976 -0.25118359 355.79279768 -0.2390562 C357.31172069 -0.23710011 358.83066065 -0.24017358 360.34955985 -0.24890056 C373.72952533 -0.32088376 384.0858251 1.55888225 394.4116888 10.44392776 C401.59742579 18.7949194 404.02619098 26.34277641 403.99834347 37.26317215 C404.00358015 38.28072 404.00881683 39.29826785 404.01421219 40.34665048 C404.02920895 43.75492986 404.02991729 47.16305907 404.03058529 50.57136917 C404.03820708 53.01580941 404.04663461 55.46024725 404.05580807 57.90468216 C404.0777604 64.54542764 404.08657524 71.18611278 404.09163451 77.8268857 C404.09489598 81.97757217 404.10142125 86.12824942 404.1086359 90.27893066 C404.12819867 101.78272642 404.14460435 113.28651361 404.14751244 124.79032707 C404.14770001 125.52600041 404.14788758 126.26167376 404.14808083 127.01964023 C404.14844707 128.5108823 404.14881077 130.00212437 404.14917194 131.49336644 C404.14935475 132.23357023 404.14953756 132.97377402 404.14972591 133.73640823 C404.14999674 134.84807767 404.14999674 134.84807767 404.15027303 135.98220508 C404.15381222 147.98213715 404.18081997 159.98188949 404.2182238 171.98175927 C404.25636429 184.31723212 404.27567034 196.65261595 404.27597195 208.98814905 C404.27655529 215.90788192 404.28496691 222.82740046 404.31396961 229.74707794 C404.34114001 236.25932107 404.34233954 242.77125229 404.32631397 249.283535 C404.32450158 251.66831894 404.33117103 254.05312738 404.34713268 256.43785858 C404.51170325 282.63095478 404.51170325 282.63095478 394.7241888 294.13142776 C386.37049863 300.83290935 377.91619907 304.25122238 367.1911087 304.26285553 C366.54555506 304.26490816 365.90000142 304.2669608 365.23488554 304.26907563 C363.06891161 304.27473594 360.90300146 304.27328959 358.73702145 304.27186966 C357.16955744 304.27445383 355.6020941 304.27746714 354.03463167 304.28087306 C349.72491074 304.28893983 345.41520647 304.29073245 341.10547888 304.29147053 C336.45850562 304.29332158 331.81154099 304.30086905 327.16457272 304.30760574 C317.00363415 304.32118605 306.84269953 304.32721296 296.6817534 304.3316164 C290.33925845 304.33437864 283.99676504 304.33861589 277.65427113 304.34312057 C260.09846912 304.35531153 242.54266833 304.36561204 224.98686218 304.36899567 C223.86335488 304.36921523 222.73984758 304.3694348 221.58229461 304.36966102 C220.45608763 304.3698793 219.32988065 304.37009757 218.16954619 304.37032247 C215.88738604 304.37076593 213.6052259 304.3712125 211.32306576 304.37166214 C209.62501739 304.37199428 209.62501739 304.37199428 207.89266502 304.37233314 C189.53854936 304.37628347 171.18447334 304.39374543 152.830373 304.41702166 C133.99287743 304.44071848 115.15540178 304.45319671 96.31789106 304.45436358 C85.73863658 304.45528114 75.15943379 304.46105404 64.58019352 304.4791832 C55.57448014 304.49456147 46.56883443 304.49971801 37.56311042 304.49144509 C32.96695158 304.48753088 28.37092912 304.48850581 23.77478695 304.50250244 C19.5685812 304.51519476 15.36261498 304.51408517 11.15640979 304.50191173 C9.63358008 304.49994664 8.11073368 304.50307048 6.58792747 304.51175609 C4.51936327 304.52280901 2.45165037 304.51538923 0.38311005 304.50336456 C-0.76625107 304.50396165 -1.91561219 304.50455874 -3.09980243 304.50517392 C-7.53465562 303.98328955 -10.92087903 302.48635993 -14.0883112 299.31892776 C-16.18744211 295.45210766 -16.52782497 292.36629527 -15.6508112 288.06892776 C-14.01009909 284.56377008 -12.27394695 282.57177082 -9.2758112 280.13142776 C-5.4310743 279.06238378 -1.7435509 279.00563729 2.23162079 279.00393581 C2.87439688 279.00229198 3.51717297 279.00064815 4.17942712 278.9989545 C6.33593557 278.9946385 8.49237646 278.99741495 10.64888668 279.00012589 C12.20952626 278.99842353 13.7701654 278.99627375 15.33080381 278.99371463 C18.72530394 278.98911824 22.11978584 278.98769665 25.5142889 278.98867989 C31.03705722 278.99027264 36.55980745 278.98507071 42.08257198 278.9790535 C50.09992689 278.97094079 58.11727862 278.96599685 66.13463688 278.96276283 C78.80101138 278.95726801 91.46735892 278.94037328 104.13371944 278.92142105 C108.46587749 278.91506444 112.7980356 278.90875603 117.13019371 278.90244389 C118.75412533 278.90006824 118.75412533 278.90006824 120.41086366 278.89764461 C132.73413482 278.8797083 145.05740788 278.86348069 157.38068295 278.84846878 C159.0705464 278.84640497 159.0705464 278.84640497 160.7945485 278.84429947 C179.06593082 278.82235202 197.33730622 278.81160879 215.60869939 278.80409803 C234.35807393 278.79603533 253.10738891 278.77277423 271.85672945 278.73614436 C283.42764278 278.71408684 294.99843374 278.70446462 306.56936704 278.7106447 C314.49293387 278.71381215 322.41639595 278.70253654 330.33993036 278.67975029 C334.91561242 278.66704643 339.4910612 278.66095601 344.06675243 278.67216682 C348.2519714 278.6822896 352.4367362 278.67418169 356.62190121 278.65130387 C358.13930251 278.64628446 359.65674415 278.64808495 361.17412616 278.65723654 C363.23083643 278.66866976 365.28597986 278.65569749 367.34259796 278.63644314 C368.486643 278.63546633 369.63068803 278.63448952 370.80940109 278.63348311 C374.36488101 278.02107223 375.51025555 276.9173065 377.7241888 274.13142776 C379.46035048 270.65910441 378.86429913 266.6289777 378.85790157 262.80650711 C378.86016713 261.82756796 378.86243269 260.8486288 378.8647669 259.84002483 C378.87112919 256.53887262 378.87027611 253.23776123 378.86945248 249.93660355 C378.87244258 247.57829612 378.87584476 245.21998918 378.87963009 242.86168289 C378.88848951 236.44024732 378.89080902 230.01882506 378.89144588 223.59738398 C378.89193918 219.58950368 378.89422286 215.58162506 378.89694309 211.57374573 C378.90575276 198.32481614 378.91036201 185.07589466 378.90961262 171.82696213 C378.90957266 171.11226489 378.90953271 170.39756765 378.90949154 169.66121292 C378.90945066 168.94564562 378.90940978 168.23007832 378.90936766 167.49282716 C378.90896117 155.89469416 378.91853069 144.29659362 378.93262991 132.69847001 C378.94698389 120.79709446 378.95390062 108.89573475 378.95303613 96.99435031 C378.95270381 90.30963438 378.95565971 83.62494765 378.96621418 76.94023895 C378.97586688 70.65467551 378.97599382 64.36918409 378.96869755 58.08361816 C378.96764817 55.77288839 378.97003539 53.4621542 378.97605801 51.15143204 C378.98373109 48.00430746 378.97916423 44.85743454 378.97142696 41.7103157 C378.97914231 40.32909773 378.97914231 40.32909773 378.98701352 38.91997635 C378.98011533 37.65585775 378.98011533 37.65585775 378.97307777 36.3662014 C378.97329514 35.63974139 378.97351251 34.91328139 378.97373646 34.16480744 C378.67657106 31.74342592 378.02305222 30.19322365 376.7241888 28.13142776 C373.17170484 25.76310512 371.68173833 25.87969991 367.4684391 25.87530136 C366.14944262 25.86906927 364.83044614 25.86283717 363.47148007 25.85641623 C361.99880574 25.85957521 360.52613178 25.86291401 359.05345821 25.86641312 C357.49596847 25.86284457 355.93848053 25.85839491 354.38099557 25.85313654 C350.08954128 25.84117751 345.79816309 25.84165917 341.50669611 25.84407163 C336.88285602 25.84449002 332.25904252 25.83340331 327.63521481 25.82361221 C319.61891899 25.80813611 311.60264082 25.79974303 303.58633137 25.79590225 C291.98947131 25.79016188 280.39265878 25.77158646 268.79581968 25.74946171 C249.97336649 25.71371684 231.15091063 25.68541476 212.32843685 25.66316605 C210.63766383 25.66116356 210.63766383 25.66116356 208.91273377 25.65912062 C200.91238567 25.64969367 192.91203728 25.64053116 184.9116888 25.63142776 C175.77814366 25.62103314 166.64459868 25.61051564 157.51105404 25.59968948 C156.3861503 25.59835874 155.26124656 25.597028 154.10225483 25.59565693 C135.35521148 25.57323777 116.60818838 25.54304653 97.86116582 25.50729704 C86.2919566 25.48561454 74.72277891 25.47100653 63.15355048 25.46545827 C55.2271769 25.46121532 47.30083335 25.44998871 39.3744764 25.43323433 C34.79861985 25.42381693 30.22281945 25.41771972 25.64695263 25.42029762 C21.459204 25.42260634 17.27157341 25.41580342 13.08384875 25.4017188 C11.56769492 25.39825264 10.05152885 25.39817171 8.53537538 25.40179139 C6.47592923 25.40622859 4.41687608 25.39841297 2.35746193 25.38755417 C1.21309219 25.38635999 0.06872245 25.38516582 -1.11032516 25.38393545 C-5.94796623 24.99804161 -9.29483433 23.91620926 -13.0883112 20.88142776 C-15.59053586 17.7357739 -16.19429287 16.12582585 -16.2758112 12.13142776 C-15.24706516 7.09057218 -13.16171596 4.44866354 -9.2758112 1.13142776 C-5.95680546 0.02509252 -3.49696843 0.0037977 0 0 Z " fill="#1F488F" transform="translate(108.27581119537354,103.86857223510742)"/>
<path d="M0 0 C7.15659533 3.37774411 13.17999891 8.64586651 19.20703125 13.6953125 C22.92603649 16.764142 26.78319621 19.6243497 30.65234375 22.5 C34.52432021 25.38147085 38.35588561 28.31518344 42.1875 31.25 C42.90760254 31.80139648 43.62770508 32.35279297 44.36962891 32.92089844 C45.84468099 34.05062825 47.31961506 35.18051218 48.79443359 36.31054688 C52.36119432 39.04266822 55.93070359 41.77119272 59.5 44.5 C60.91668053 45.5833152 62.33334718 46.66664855 63.75 47.75 C64.45125 48.28625 65.1525 48.8225 65.875 49.375 C89.25 67.25 89.25 67.25 91.37597656 68.87597656 C92.78909228 69.95644159 94.20250263 71.03652139 95.61621094 72.11621094 C99.21475215 74.86530397 102.80752313 77.62143092 106.390625 80.390625 C128.06509746 98.15460571 128.06509746 98.15460571 155 102 C164.83294666 100.30133084 172.22192205 93.74808729 179.82470703 87.72363281 C182.7764396 85.38477401 185.75197489 83.07707871 188.72631836 80.76708984 C190.24810286 79.58436932 191.76843883 78.39978275 193.28735352 77.21337891 C198.79269113 72.91615541 204.36065815 68.71138218 209.9609375 64.5390625 C215.02452393 60.75638331 220.0201374 56.89206207 225 53 C231.38438368 48.01072492 237.82136179 43.10206158 244.31469727 38.25561523 C251.2636675 33.0666235 258.1246315 27.76547985 264.98828125 22.46435547 C272.56251182 16.62032367 280.15345727 10.8130939 287.9375 5.25 C288.81523071 4.62254883 288.81523071 4.62254883 289.71069336 3.98242188 C294.52831411 0.56900798 296.97308434 -0.49400948 303 0 C306.59039687 1.32657234 309.33632309 3.00448464 311.5 6.25 C312.35054584 10.9280021 312.29994324 14.7274715 309.9296875 18.87109375 C304.58319728 25.60319269 297.07679026 30.37528264 290.18798828 35.39257812 C286.6071356 38.0232782 283.08577981 40.73045075 279.5625 43.4375 C278.13678109 44.53002928 276.71099959 45.62247687 275.28515625 46.71484375 C274.22385498 47.52864502 274.22385498 47.52864502 273.14111328 48.35888672 C269.59649434 51.07575428 266.04806623 53.78763701 262.5 56.5 C261.08331485 57.58330916 259.66664819 58.6666425 258.25 59.75 C255.41666667 61.91666667 252.58333333 64.08333333 249.75 66.25 C248.6986084 67.05401245 248.6986084 67.05401245 247.62597656 67.87426758 C246.20607316 68.96006647 244.78615122 70.04584112 243.36621094 71.1315918 C239.87391567 73.80200585 236.38191954 76.47280895 232.890625 79.14453125 C226.88392772 83.74056477 220.87546253 88.33422968 214.859375 92.91796875 C213.97934814 93.58860352 213.09932129 94.25923828 212.19262695 94.95019531 C210.40066084 96.31435775 208.60753207 97.6769943 206.81323242 99.03808594 C202.63788977 102.20857275 198.48188795 105.39640064 194.37890625 108.66015625 C177.80584182 121.7876656 161.97676618 129.63582479 140.40234375 127.5078125 C128.05451733 125.66485333 117.84610061 120.03980414 108 112.5625 C107.1853125 111.95341797 106.370625 111.34433594 105.53125 110.71679688 C99.21585153 105.97537503 92.98528354 101.12561841 86.77148438 96.25219727 C81.41972504 92.0663236 75.98532252 88.00884909 70.5 84 C63.48717031 78.87479984 56.6029506 73.61142184 49.76953125 68.25 C44.41776388 64.06572115 38.98454606 60.00828162 33.5 56 C26.49759626 50.88241945 19.6167494 45.63502978 12.80249023 40.26977539 C8.83929667 37.16280306 4.83678575 34.13204867 0.75390625 31.18359375 C-0.11298828 30.55646484 -0.97988281 29.92933594 -1.87304688 29.28320312 C-3.54163977 28.08227374 -5.21586584 26.88911993 -6.89648438 25.70507812 C-14.08106561 20.53291589 -14.08106561 20.53291589 -16 16 C-16.54768238 11.07085861 -16.54281153 9.01075251 -14.1875 4.625 C-9.99178636 -0.40985636 -6.23298061 -1.20516846 0 0 Z " fill="#1F488E" transform="translate(154,151)"/>
<path d="M0 0 C5.0989169 2.95402561 9.03091625 6.74593032 13.16699219 10.90820312 C13.85715927 11.59486557 14.54732635 12.28152802 15.25840759 12.98899841 C17.52626926 15.24809515 19.78678108 17.51438407 22.046875 19.78125 C23.62505355 21.35808071 25.20352884 22.93461447 26.7822876 24.51086426 C30.08386934 27.80950209 33.38181803 31.11171872 36.67724609 34.41650391 C40.90290837 38.6535789 45.13751068 42.88158725 49.37485886 47.10697174 C52.63321594 50.35810646 55.88680022 53.61398387 59.13895416 56.87132263 C60.69881607 58.43251902 62.2601659 59.99223022 63.82302094 61.5504303 C66.00374978 63.72608583 68.17797425 65.90803956 70.35058594 68.09179688 C70.99787155 68.73503403 71.64515717 69.37827118 72.3120575 70.04100037 C72.9035408 70.63812332 73.49502411 71.23524628 74.10443115 71.85046387 C74.87534403 72.62250782 74.87534403 72.62250782 75.6618309 73.41014862 C77.7016859 75.83365869 78.93068798 78.00652768 79.15234375 81.18359375 C78.74090882 85.49992018 78.37821936 87.53449925 75.5625 91 C71.95790676 93.81334107 69.83588742 94.16488044 65.265625 94.42578125 C59.00235169 93.24871782 54.23244557 87.51892322 49.92480469 83.18359375 C49.24439117 82.50668488 48.56397766 81.829776 47.86294556 81.13235474 C45.62754975 78.90572259 43.39950346 76.67190094 41.171875 74.4375 C39.61611668 72.88308955 38.06006162 71.32897605 36.50372314 69.77514648 C33.2492198 66.52358687 29.99834944 63.2684493 26.75 60.01074219 C22.5848717 55.8342009 18.41080388 51.66672758 14.23398972 47.50187683 C11.02195558 44.29706531 7.81469476 41.087511 4.60886383 37.87649536 C3.07133057 36.33762771 1.5323096 34.800245 -0.00821686 33.26437378 C-2.15781343 31.11985095 -4.30090342 28.96903067 -6.44238281 26.81640625 C-7.08031769 26.18251984 -7.71825256 25.54863342 -8.3755188 24.89553833 C-8.95858795 24.30682953 -9.5416571 23.71812073 -10.14239502 23.11157227 C-10.64896259 22.60425064 -11.15553017 22.09692902 -11.67744827 21.57423401 C-14.68045832 17.99974959 -15.500748 14.73276366 -15.38671875 10.03125 C-14.56490832 5.71466995 -11.56859262 3.11319476 -8.0625 0.625 C-5.15227888 -0.25688519 -3.03383286 -0.36405994 0 0 Z " fill="#1F488F" transform="translate(387,267)"/>
<path d="M0 0 C1.25530266 -0.00856522 1.25530266 -0.00856522 2.53596497 -0.01730347 C3.45082672 -0.01842133 4.36568848 -0.01953918 5.30827332 -0.02069092 C6.27443069 -0.02565582 7.24058807 -0.03062073 8.23602295 -0.03573608 C11.43744108 -0.05036037 14.63880966 -0.05716024 17.84025574 -0.06268311 C20.06361899 -0.06843443 22.28698223 -0.07419216 24.51034546 -0.07995605 C29.17508679 -0.09046686 33.83981087 -0.09630898 38.50456238 -0.09979248 C44.48005134 -0.10527672 50.45531238 -0.12930309 56.43072987 -0.15776443 C61.02468531 -0.17639392 65.61858589 -0.18159659 70.21257591 -0.18312836 C72.41537916 -0.1861548 74.61818145 -0.19418304 76.82094765 -0.20731354 C79.9041385 -0.22437987 82.98677306 -0.22249215 86.06999207 -0.21600342 C86.97878113 -0.2252182 87.88757019 -0.23443298 88.82389832 -0.243927 C93.90671349 -0.21044062 97.52384678 0.2253307 101.88322449 3.14044189 C104.59390853 7.59995435 105.41043056 11.21475507 104.53556824 16.27716064 C103.21757879 20.04171733 100.36666487 22.3987217 96.88322449 24.14044189 C95.52620683 24.23816241 94.16456734 24.27544302 92.80404663 24.28088379 C91.95027939 24.28659393 91.09651215 24.29230408 90.21687317 24.29818726 C89.27814362 24.29930511 88.33941406 24.30042297 87.37223816 24.30157471 C86.38511337 24.30653961 85.39798859 24.31150452 84.38095093 24.31661987 C81.10435802 24.33126511 77.82781354 24.33804762 74.55119324 24.34356689 C72.27916461 24.34931664 70.00713601 24.35507439 67.73510742 24.36083984 C62.96603671 24.37135672 58.1969829 24.37719481 53.42790222 24.38067627 C47.31440486 24.38616078 41.20113025 24.41018515 35.08770275 24.43864822 C30.39256131 24.45726494 25.6974736 24.46247971 21.00229836 24.46401215 C18.74842931 24.46704165 16.49456128 24.47508017 14.24072838 24.48819733 C11.08777774 24.50523644 7.93537231 24.50338255 4.78239441 24.49688721 C3.84973755 24.50610199 2.91708069 24.51531677 1.9561615 24.52481079 C-2.86161183 24.49369262 -6.26336781 24.37385265 -10.11677551 21.14044189 C-12.76275322 16.6422798 -13.65124796 13.07381203 -12.76521301 8.00372314 C-11.66890595 4.85349141 -9.68592031 3.15905566 -7.11677551 1.14044189 C-4.39364094 0.23273037 -2.79989036 0.01145825 0 0 Z " fill="#1F488F" transform="translate(82.11677551269531,301.85955810546875)"/>
<path d="M0 0 C0.85376724 -0.00571014 1.70753448 -0.01142029 2.58717346 -0.01730347 C3.52590302 -0.01842133 4.46463257 -0.01953918 5.43180847 -0.02069092 C6.41893326 -0.02565582 7.40605804 -0.03062073 8.4230957 -0.03573608 C11.69968861 -0.05038132 14.97623309 -0.05716383 18.25285339 -0.06268311 C20.52488202 -0.06843285 22.79691062 -0.0741906 25.06893921 -0.07995605 C29.83800992 -0.09047293 34.60706373 -0.09631102 39.37614441 -0.09979248 C45.48964177 -0.10527699 51.60291638 -0.12930136 57.71634388 -0.15776443 C62.41148533 -0.17638115 67.10657304 -0.18159592 71.80174828 -0.18312836 C74.05561732 -0.18615787 76.30948535 -0.19419638 78.56331825 -0.20731354 C81.71626889 -0.22435265 84.86867432 -0.22249876 88.02165222 -0.21600342 C88.95430908 -0.2252182 89.88696594 -0.23443298 90.84788513 -0.243927 C95.66565846 -0.21280883 99.06741444 -0.09296886 102.92082214 3.14044189 C105.5678575 7.640402 106.44964877 11.20537772 105.57316589 16.27716064 C104.25517645 20.04171733 101.40426253 22.3987217 97.92082214 24.14044189 C96.56380449 24.23816241 95.202165 24.27544302 93.84164429 24.28088379 C92.98787704 24.28659393 92.1341098 24.29230408 91.25447083 24.29818726 C90.31574127 24.29930511 89.37701172 24.30042297 88.40983582 24.30157471 C87.42271103 24.30653961 86.43558624 24.31150452 85.41854858 24.31661987 C82.14195568 24.33126511 78.8654112 24.33804762 75.58879089 24.34356689 C73.31676227 24.34931664 71.04473366 24.35507439 68.77270508 24.36083984 C64.00363437 24.37135672 59.23458056 24.37719481 54.46549988 24.38067627 C48.35200252 24.38616078 42.2387279 24.41018515 36.12530041 24.43864822 C31.43015896 24.45726494 26.73507125 24.46247971 22.03989601 24.46401215 C19.78602697 24.46704165 17.53215894 24.47508017 15.27832603 24.48819733 C12.12537539 24.50523644 8.97296997 24.50338255 5.81999207 24.49688721 C4.88733521 24.50610199 3.95467834 24.51531677 2.99375916 24.52481079 C-1.83471704 24.49362349 -5.20357791 24.35717364 -9.07917786 21.14044189 C-11.44187978 17.59638901 -11.79251283 15.36875103 -12.07917786 11.14044189 C-11.10401304 6.61922319 -9.60768636 4.11762094 -6.07917786 1.14044189 C-3.79897055 0.00033824 -2.53338191 0.01013108 0 0 Z " fill="#1F488F" transform="translate(46.07917785644531,243.85955810546875)"/>
<path d="M0 0 C0.8621814 -0.0071553 1.72436279 -0.01431061 2.6126709 -0.02168274 C3.56075119 -0.02437164 4.50883148 -0.02706055 5.48564148 -0.02983093 C6.48251984 -0.03640213 7.47939819 -0.04297333 8.50648499 -0.04974365 C11.8155372 -0.06950402 15.12454399 -0.08114494 18.43363953 -0.09111023 C20.12605805 -0.09722352 20.12605805 -0.09722352 21.85266685 -0.10346031 C27.82358493 -0.12433205 33.79447995 -0.13862939 39.76542664 -0.147995 C45.93952298 -0.15906587 52.11325954 -0.19347078 58.28722858 -0.23316669 C63.02869345 -0.25928366 67.77007193 -0.26768244 72.5116024 -0.27127647 C74.78781249 -0.27615461 77.06401842 -0.28780328 79.34015846 -0.30631447 C82.52436138 -0.33060225 85.70762474 -0.32975964 88.89189148 -0.32279968 C89.83389908 -0.33560974 90.77590668 -0.3484198 91.74645996 -0.36161804 C95.97687832 -0.32787824 98.26116755 -0.24007482 101.9213562 2.03982544 C104.70592117 5.03143109 105.82137648 7.16167068 105.94926453 11.29170227 C105.71300781 15.60875685 105.25268151 17.68002588 102.50785828 21.14717102 C99.19708223 23.66966706 96.81459015 24.27053988 92.76608276 24.29434204 C91.92921432 24.30149734 91.09234589 24.30865265 90.2301178 24.31602478 C89.31525604 24.31871368 88.40039429 24.32140259 87.45780945 24.32417297 C86.49165207 24.33074417 85.52549469 24.33731537 84.53005981 24.34408569 C81.32864812 24.36381734 78.1272833 24.37548041 74.92582703 24.38545227 C73.28630286 24.39156556 73.28630286 24.39156556 71.613657 24.39780235 C65.82961338 24.41866151 60.04559348 24.43296449 54.26152039 24.44233704 C48.28596345 24.45340721 42.31077831 24.48781487 36.3353529 24.52750874 C31.74139714 24.55364447 27.14753042 24.56202614 22.55350685 24.56561852 C20.3506907 24.57049153 18.14787871 24.58212575 15.94513512 24.60065651 C12.86181972 24.62498488 9.77947254 24.6240943 6.6960907 24.61714172 C5.3329071 24.63635681 5.3329071 24.63635681 3.94218445 24.65596008 C-1.56457087 24.61072568 -4.78058366 23.8733099 -9.11714172 20.14717102 C-12.07981017 15.70316836 -11.88660066 11.35816025 -11.11714172 6.14717102 C-7.82902795 1.82070553 -5.33739844 0.03036298 0 0 Z " fill="#1F488F" transform="translate(11.117141723632813,185.8528289794922)"/>
</svg>
