<?xml version="1.0" encoding="UTF-8"?>
<!DOCTYPE svg PUBLIC "-//W3C//DTD SVG 1.1//EN" "http://www.w3.org/Graphics/SVG/1.1/DTD/svg11.dtd">
<svg xmlns="http://www.w3.org/2000/svg" version="1.1" width="512px" height="512px" style="shape-rendering:geometricPrecision; text-rendering:geometricPrecision; image-rendering:optimizeQuality; fill-rule:evenodd; clip-rule:evenodd" xmlns:xlink="http://www.w3.org/1999/xlink">
<g><path style="opacity:0.976" fill="#000000" d="M 511.5,234.5 C 511.5,250.5 511.5,266.5 511.5,282.5C 505.298,348.055 480.631,405.555 437.5,455C 422.297,462.574 409.797,459.408 400,445.5C 394.744,434.88 395.744,424.88 403,415.5C 450.649,356.248 468.315,288.915 456,213.5C 447.063,166.628 426.73,125.628 395,90.5C 388.702,73.2627 393.869,60.7627 410.5,53C 419.139,50.493 427.139,51.8263 434.5,57C 479.418,107.683 505.085,166.85 511.5,234.5 Z"/></g>
<g><path style="opacity:0.989" fill="#000000" d="M -0.5,311.5 C -0.5,276.167 -0.5,240.833 -0.5,205.5C 1.98551,196.849 7.65218,191.349 16.5,189C 41.1667,188.667 65.8333,188.333 90.5,188C 132.5,153 174.5,118 216.5,83C 229.63,74.529 241.463,76.029 252,87.5C 254.479,91.1229 255.812,95.1229 256,99.5C 256.667,205.167 256.667,310.833 256,416.5C 252.975,432.844 243.142,440.01 226.5,438C 223.215,437.241 220.215,435.908 217.5,434C 175.5,399 133.5,364 91.5,329C 67.8333,328.667 44.1667,328.333 20.5,328C 10.0645,326.718 3.06455,321.218 -0.5,311.5 Z"/></g>
<g><path style="opacity:0.973" fill="#000000" d="M 333.5,131.5 C 340.711,130.804 347.377,132.304 353.5,136C 383.888,170.975 399.221,211.809 399.5,258.5C 399.377,302.534 385.377,341.367 357.5,375C 341.219,382.886 328.386,379.053 319,363.5C 315.667,356.167 315.667,348.833 319,341.5C 352.791,293.766 356.458,243.766 330,191.5C 325.826,184.484 321.159,177.817 316,171.5C 308.957,152.582 314.791,139.249 333.5,131.5 Z"/></g>
</svg>
