<?xml version="1.0" encoding="UTF-8"?>
<!DOCTYPE svg PUBLIC "-//W3C//DTD SVG 1.1//EN" "http://www.w3.org/Graphics/SVG/1.1/DTD/svg11.dtd">
<svg xmlns="http://www.w3.org/2000/svg" version="1.1" width="512px" height="512px" style="shape-rendering:geometricPrecision; text-rendering:geometricPrecision; image-rendering:optimizeQuality; fill-rule:evenodd; clip-rule:evenodd" xmlns:xlink="http://www.w3.org/1999/xlink">
<g><path style="opacity:0.973" fill="#000000" d="M 293.5,83.5 C 309.378,82.5847 318.378,89.9181 320.5,105.5C 291.596,209.786 261.763,313.786 231,417.5C 220.869,428.088 209.703,429.255 197.5,421C 191.342,413.08 189.842,404.247 193,394.5C 221,296.5 249,198.5 277,100.5C 279.349,91.6522 284.849,85.9855 293.5,83.5 Z"/></g>
<g><path style="opacity:0.97" fill="#000000" d="M 121.5,148.5 C 135.033,146.512 144.2,151.845 149,164.5C 150.209,170.886 149.209,176.886 146,182.5C 121.653,206.68 97.4861,231.014 73.5,255.5C 97.4861,279.986 121.653,304.32 146,328.5C 153.119,343.478 149.285,354.645 134.5,362C 126.881,363.549 119.881,362.216 113.5,358C 84,328.5 54.5,299 25,269.5C 19,260.167 19,250.833 25,241.5C 54.5,212 84,182.5 113.5,153C 116.099,151.205 118.766,149.705 121.5,148.5 Z"/></g>
<g><path style="opacity:0.97" fill="#000000" d="M 376.5,148.5 C 384.124,147.449 391.124,148.949 397.5,153C 427,182.5 456.5,212 486,241.5C 492,250.833 492,260.167 486,269.5C 456.5,299 427,328.5 397.5,358C 381.364,367.173 369.53,363.34 362,346.5C 360.791,340.114 361.791,334.114 365,328.5C 389.347,304.32 413.514,279.986 437.5,255.5C 413.514,231.014 389.347,206.68 365,182.5C 357.978,167.399 361.811,156.066 376.5,148.5 Z"/></g>
</svg>
