<?xml version="1.0" encoding="UTF-8"?>
<!DOCTYPE svg PUBLIC "-//W3C//DTD SVG 1.1//EN" "http://www.w3.org/Graphics/SVG/1.1/DTD/svg11.dtd">
<svg xmlns="http://www.w3.org/2000/svg" version="1.1" width="512px" height="512px" style="shape-rendering:geometricPrecision; text-rendering:geometricPrecision; image-rendering:optimizeQuality; fill-rule:evenodd; clip-rule:evenodd" xmlns:xlink="http://www.w3.org/1999/xlink">
<g><path style="opacity:0.997" fill="#518ef8" d="M 94.5,-0.5 C 163.167,-0.5 231.833,-0.5 300.5,-0.5C 300.168,36.6704 300.502,73.6704 301.5,110.5C 303.793,125.797 312.46,135.464 327.5,139.5C 365.262,155.538 403.262,171.204 441.5,186.5C 441.667,285.501 441.5,384.501 441,483.5C 437.937,497.39 429.771,506.724 416.5,511.5C 309.167,511.5 201.833,511.5 94.5,511.5C 81.0278,506.935 72.8612,497.602 70,483.5C 69.3333,331.5 69.3333,179.5 70,27.5C 72.8612,13.3981 81.0278,4.06479 94.5,-0.5 Z"/></g>
<g><path style="opacity:1" fill="#9bc4fb" d="M 300.5,-0.5 C 301.167,-0.5 301.833,-0.5 302.5,-0.5C 302.833,0.166667 303.167,0.833333 303.5,1.5C 301.506,37.4847 300.84,73.818 301.5,110.5C 300.502,73.6704 300.168,36.6704 300.5,-0.5 Z"/></g>
<g><path style="opacity:1" fill="#abd0fc" d="M 303.5,1.5 C 349.5,46.8333 395.167,92.5 440.5,138.5C 404.671,139.498 368.671,139.832 332.5,139.5C 330.833,139.5 329.167,139.5 327.5,139.5C 312.46,135.464 303.793,125.797 301.5,110.5C 300.84,73.818 301.506,37.4847 303.5,1.5 Z"/></g>
<g><path style="opacity:1" fill="#597bcd" d="M 440.5,138.5 C 441.338,138.842 441.672,139.508 441.5,140.5C 404.996,140.832 368.663,140.498 332.5,139.5C 368.671,139.832 404.671,139.498 440.5,138.5 Z"/></g>
<g><path style="opacity:1" fill="#3a5bbc" d="M 327.5,139.5 C 329.167,139.5 330.833,139.5 332.5,139.5C 368.663,140.498 404.996,140.832 441.5,140.5C 441.5,155.833 441.5,171.167 441.5,186.5C 403.262,171.204 365.262,155.538 327.5,139.5 Z"/></g>
<g><path style="opacity:1" fill="#f2f6fe" d="M 349.5,277.5 C 349.5,270.833 349.5,264.167 349.5,257.5C 286.833,257.5 224.167,257.5 161.5,257.5C 161.5,264.167 161.5,270.833 161.5,277.5C 160.509,270.687 160.175,263.687 160.5,256.5C 223.833,256.5 287.167,256.5 350.5,256.5C 350.825,263.687 350.491,270.687 349.5,277.5 Z"/></g>
<g><path style="opacity:1" fill="#fefffe" d="M 349.5,277.5 C 286.833,277.5 224.167,277.5 161.5,277.5C 161.5,270.833 161.5,264.167 161.5,257.5C 224.167,257.5 286.833,257.5 349.5,257.5C 349.5,264.167 349.5,270.833 349.5,277.5 Z"/></g>
<g><path style="opacity:1" fill="#e9f1fd" d="M 349.5,324.5 C 349.5,317.833 349.5,311.167 349.5,304.5C 286.833,304.5 224.167,304.5 161.5,304.5C 161.5,311.167 161.5,317.833 161.5,324.5C 160.509,317.687 160.175,310.687 160.5,303.5C 223.833,303.5 287.167,303.5 350.5,303.5C 350.825,310.687 350.491,317.687 349.5,324.5 Z"/></g>
<g><path style="opacity:1" fill="#fefffe" d="M 349.5,324.5 C 286.833,324.5 224.167,324.5 161.5,324.5C 161.5,317.833 161.5,311.167 161.5,304.5C 224.167,304.5 286.833,304.5 349.5,304.5C 349.5,311.167 349.5,317.833 349.5,324.5 Z"/></g>
<g><path style="opacity:1" fill="#e1ebfd" d="M 349.5,371.5 C 349.5,364.833 349.5,358.167 349.5,351.5C 286.833,351.5 224.167,351.5 161.5,351.5C 161.5,358.167 161.5,364.833 161.5,371.5C 160.509,364.687 160.175,357.687 160.5,350.5C 223.833,350.5 287.167,350.5 350.5,350.5C 350.825,357.687 350.491,364.687 349.5,371.5 Z"/></g>
<g><path style="opacity:1" fill="#fefffe" d="M 349.5,371.5 C 286.833,371.5 224.167,371.5 161.5,371.5C 161.5,364.833 161.5,358.167 161.5,351.5C 224.167,351.5 286.833,351.5 349.5,351.5C 349.5,358.167 349.5,364.833 349.5,371.5 Z"/></g>
<g><path style="opacity:1" fill="#d7e5fd" d="M 295.5,398.5 C 250.833,398.5 206.167,398.5 161.5,398.5C 161.5,405.167 161.5,411.833 161.5,418.5C 160.509,411.687 160.175,404.687 160.5,397.5C 205.67,397.168 250.67,397.501 295.5,398.5 Z"/></g>
<g><path style="opacity:1" fill="#fefffe" d="M 295.5,398.5 C 295.5,405.167 295.5,411.833 295.5,418.5C 250.833,418.5 206.167,418.5 161.5,418.5C 161.5,411.833 161.5,405.167 161.5,398.5C 206.167,398.5 250.833,398.5 295.5,398.5 Z"/></g>
</svg>
