<?xml version="1.0" encoding="UTF-8"?>
<!DOCTYPE svg PUBLIC "-//W3C//DTD SVG 1.1//EN" "http://www.w3.org/Graphics/SVG/1.1/DTD/svg11.dtd">
<svg xmlns="http://www.w3.org/2000/svg" version="1.1" width="512px" height="512px" style="shape-rendering:geometricPrecision; text-rendering:geometricPrecision; image-rendering:optimizeQuality; fill-rule:evenodd; clip-rule:evenodd" xmlns:xlink="http://www.w3.org/1999/xlink">
<g><path style="opacity:0.996" fill="#d7dee2" d="M 343.5,39.5 C 343.333,68.5019 343.5,97.5019 344,126.5C 346.929,135.096 352.763,140.596 361.5,143C 382.164,143.5 402.831,143.667 423.5,143.5C 423.5,193.833 423.5,244.167 423.5,294.5C 314.335,295.499 205.001,295.833 95.5,295.5C 95.8298,278.991 95.4964,262.658 94.5,246.5C 94.3333,184.499 94.5,122.499 95,60.5C 97.4987,47.5009 105.332,40.3342 118.5,39C 193.668,38.1678 268.668,38.3344 343.5,39.5 Z"/></g>
<g><path style="opacity:1" fill="#afbdc7" d="M 343.5,39.5 C 347.147,39.6216 349.981,41.2882 352,44.5C 374.615,75.4495 397.615,106.116 421,136.5C 422.411,138.65 423.245,140.984 423.5,143.5C 402.831,143.667 382.164,143.5 361.5,143C 352.763,140.596 346.929,135.096 344,126.5C 343.5,97.5019 343.333,68.5019 343.5,39.5 Z"/></g>
<g><path style="opacity:1" fill="#040404" d="M 163.5,135.5 C 200.502,135.333 237.502,135.5 274.5,136C 278.277,138.911 279.444,142.744 278,147.5C 276.786,149.049 275.286,150.215 273.5,151C 237.167,151.667 200.833,151.667 164.5,151C 159.931,148.459 158.431,144.625 160,139.5C 161.376,138.295 162.542,136.962 163.5,135.5 Z"/></g>
<g><path style="opacity:1" fill="#050505" d="M 163.5,183.5 C 227.168,183.333 290.834,183.5 354.5,184C 358.277,186.911 359.444,190.744 358,195.5C 356.786,197.049 355.286,198.215 353.5,199C 290.5,199.667 227.5,199.667 164.5,199C 158.273,194.239 157.94,189.073 163.5,183.5 Z"/></g>
<g><path style="opacity:1" fill="#060707" d="M 163.5,231.5 C 227.168,231.333 290.834,231.5 354.5,232C 357.516,233.529 358.849,236.029 358.5,239.5C 358.664,243.177 356.997,245.677 353.5,247C 290.5,247.667 227.5,247.667 164.5,247C 158.273,242.239 157.94,237.073 163.5,231.5 Z"/></g>
<g><path style="opacity:0.989" fill="#216896" d="M 94.5,246.5 C 95.4964,262.658 95.8298,278.991 95.5,295.5C 84.7551,295.929 74.0885,295.429 63.5,294C 54.2288,290.23 48.8955,283.397 47.5,273.5C 46.6658,263.664 50.3324,255.83 58.5,250C 61.3634,248.601 64.3634,247.601 67.5,247C 76.4938,246.5 85.4938,246.334 94.5,246.5 Z"/></g>
<g><path style="opacity:0.994" fill="#2d98db" d="M 47.5,273.5 C 48.8955,283.397 54.2288,290.23 63.5,294C 74.0885,295.429 84.7551,295.929 95.5,295.5C 205.001,295.833 314.335,295.499 423.5,294.5C 430.175,294.334 436.842,294.5 443.5,295C 454,297.5 460.5,304 463,314.5C 463.667,360.167 463.667,405.833 463,451.5C 461.105,460.396 455.938,466.563 447.5,470C 320.543,471.659 193.543,471.993 66.5,471C 54.6313,468.133 48.1313,460.633 47,448.5C 46.1681,389.999 46.3348,331.665 47.5,273.5 Z"/></g>
<g><path style="opacity:1" fill="#d6dee2" d="M 133.5,335.5 C 146.837,335.333 160.171,335.5 173.5,336C 189.667,340.167 199.833,350.333 204,366.5C 204.667,376.167 204.667,385.833 204,395.5C 201.347,413.639 191.18,425.139 173.5,430C 160.167,430.667 146.833,430.667 133.5,430C 132.069,429.535 130.903,428.701 130,427.5C 128.35,398.586 128.017,369.586 129,340.5C 130.025,338.313 131.525,336.646 133.5,335.5 Z"/></g>
<g><path style="opacity:1" fill="#d5dee2" d="M 245.5,335.5 C 271.733,334.879 287.567,347.545 293,373.5C 295.593,393.675 289.427,410.508 274.5,424C 253.49,435.927 235.99,432.094 222,412.5C 208.121,386.89 211.288,363.723 231.5,343C 235.933,339.82 240.6,337.32 245.5,335.5 Z"/></g>
<g><path style="opacity:1" fill="#d5dee2" d="M 331.5,336.5 C 347.898,333.139 362.065,337.139 374,348.5C 378.609,353.703 380.943,359.703 381,366.5C 378.179,370.663 374.345,372.163 369.5,371C 366.298,365.123 362.298,359.789 357.5,355C 340.713,347.374 327.88,351.541 319,367.5C 317.416,376.758 317.083,386.091 318,395.5C 323.366,412.441 334.866,418.941 352.5,415C 354.5,414 356.5,413 358.5,412C 361.74,408.106 364.907,404.273 368,400.5C 370.764,403.69 372.764,407.356 374,411.5C 376.172,410.415 378.172,409.081 380,407.5C 375.621,420 366.788,427.833 353.5,431C 334.496,434.782 319.329,428.948 308,413.5C 305.007,408.189 303.007,402.522 302,396.5C 301.333,387.5 301.333,378.5 302,369.5C 306.054,353.282 315.887,342.282 331.5,336.5 Z"/></g>
<g><path style="opacity:1" fill="#68afdd" d="M 167.5,351.5 C 160.167,351.5 152.833,351.5 145.5,351.5C 145.5,372.5 145.5,393.5 145.5,414.5C 152.833,414.5 160.167,414.5 167.5,414.5C 160.018,415.492 152.352,415.825 144.5,415.5C 144.5,393.833 144.5,372.167 144.5,350.5C 152.352,350.175 160.018,350.508 167.5,351.5 Z"/></g>
<g><path style="opacity:1" fill="#2d98db" d="M 167.5,351.5 C 177.785,352.947 184.618,358.614 188,368.5C 188.667,377.833 188.667,387.167 188,396.5C 185.021,406.984 178.187,412.984 167.5,414.5C 160.167,414.5 152.833,414.5 145.5,414.5C 145.5,393.5 145.5,372.5 145.5,351.5C 152.833,351.5 160.167,351.5 167.5,351.5 Z"/></g>
<g><path style="opacity:1" fill="#2f98db" d="M 247.5,351.5 C 263.806,350.62 273.639,358.286 277,374.5C 279.252,388.681 275.418,400.847 265.5,411C 253.045,417.62 242.878,415.12 235,403.5C 227.162,388.412 227.829,373.745 237,359.5C 239.94,355.963 243.44,353.297 247.5,351.5 Z"/></g>
</svg>
