<?xml version="1.0" encoding="UTF-8"?>
<!DOCTYPE svg PUBLIC "-//W3C//DTD SVG 1.1//EN" "http://www.w3.org/Graphics/SVG/1.1/DTD/svg11.dtd">
<svg xmlns="http://www.w3.org/2000/svg" version="1.1" width="512px" height="512px" style="shape-rendering:geometricPrecision; text-rendering:geometricPrecision; image-rendering:optimizeQuality; fill-rule:evenodd; clip-rule:evenodd" xmlns:xlink="http://www.w3.org/1999/xlink">
<g><path style="opacity:0.991" fill="#000000" d="M 104.5,-0.5 C 172.833,-0.5 241.167,-0.5 309.5,-0.5C 319.497,1.83198 328.497,6.33198 336.5,13C 366.198,41.6991 396.198,70.0325 426.5,98C 438.787,107.746 446.62,120.246 450,135.5C 450.667,246.167 450.667,356.833 450,467.5C 443.985,490.681 429.485,505.348 406.5,511.5C 305.833,511.5 205.167,511.5 104.5,511.5C 81.5151,505.348 67.0151,490.681 61,467.5C 60.3333,326.167 60.3333,184.833 61,43.5C 67.0151,20.3188 81.5151,5.65211 104.5,-0.5 Z M 115.5,29.5 C 175.167,29.5 234.833,29.5 294.5,29.5C 294.333,60.8351 294.5,92.1684 295,123.5C 298.942,137.109 307.775,145.609 321.5,149C 354.498,149.5 387.498,149.667 420.5,149.5C 420.667,251.834 420.5,354.167 420,456.5C 418.5,471.333 410.333,479.5 395.5,481C 299.807,481.983 204.141,481.65 108.5,480C 97.4491,476.069 91.6158,468.236 91,456.5C 90.3333,322.5 90.3333,188.5 91,54.5C 92.6779,39.6564 100.845,31.3231 115.5,29.5 Z M 324.5,45.5 C 350.631,69.7954 376.631,94.2954 402.5,119C 377.104,119.972 351.771,119.638 326.5,118C 325.809,116.933 325.309,115.766 325,114.5C 324.5,91.5024 324.333,68.5024 324.5,45.5 Z"/></g>
<g><path style="opacity:0.993" fill="#000000" d="M 136.5,199.5 C 213.834,199.333 291.167,199.5 368.5,200C 377.475,205.152 379.975,212.652 376,222.5C 374.235,225.473 371.735,227.64 368.5,229C 291.167,229.667 213.833,229.667 136.5,229C 127.525,223.848 125.025,216.348 129,206.5C 131.015,203.588 133.515,201.255 136.5,199.5 Z"/></g>
<g><path style="opacity:0.993" fill="#000000" d="M 136.5,279.5 C 213.834,279.333 291.167,279.5 368.5,280C 377.475,285.152 379.975,292.652 376,302.5C 374.235,305.473 371.735,307.64 368.5,309C 291.167,309.667 213.833,309.667 136.5,309C 127.525,303.848 125.025,296.348 129,286.5C 131.015,283.588 133.515,281.255 136.5,279.5 Z"/></g>
<g><path style="opacity:0.983" fill="#000000" d="M 136.5,359.5 C 164.502,359.333 192.502,359.5 220.5,360C 230.723,365.295 233.223,373.128 228,383.5C 226.062,386.106 223.562,387.939 220.5,389C 192.5,389.667 164.5,389.667 136.5,389C 127.525,383.848 125.025,376.348 129,366.5C 131.015,363.588 133.515,361.255 136.5,359.5 Z"/></g>
</svg>
