<?xml version="1.0" encoding="UTF-8"?>
<!DOCTYPE svg PUBLIC "-//W3C//DTD SVG 1.1//EN" "http://www.w3.org/Graphics/SVG/1.1/DTD/svg11.dtd">
<svg xmlns="http://www.w3.org/2000/svg" version="1.1" width="512px" height="512px" style="shape-rendering:geometricPrecision; text-rendering:geometricPrecision; image-rendering:optimizeQuality; fill-rule:evenodd; clip-rule:evenodd" xmlns:xlink="http://www.w3.org/1999/xlink">
<g><path style="opacity:0.994" fill="#1a395e" d="M 121.5,39.5 C 178.501,39.3333 235.501,39.5 292.5,40C 330.667,78.1667 368.833,116.333 407,154.5C 407.5,206.832 407.667,259.166 407.5,311.5C 423.17,311.333 438.837,311.5 454.5,312C 461.519,314.351 466.686,318.851 470,325.5C 471.65,368.441 471.984,411.441 471,454.5C 468.167,462.667 462.667,468.167 454.5,471C 321.833,471.667 189.167,471.667 56.5,471C 48.3333,468.167 42.8333,462.667 40,454.5C 39.0164,411.441 39.3497,368.441 41,325.5C 44.3141,318.851 49.4808,314.351 56.5,312C 72.1631,311.5 87.8298,311.333 103.5,311.5C 103.333,226.499 103.5,141.499 104,56.5C 107.084,47.915 112.917,42.2483 121.5,39.5 Z M 127.5,55.5 C 178.167,55.5 228.833,55.5 279.5,55.5C 279.013,92.2528 279.513,128.92 281,165.5C 281.75,166.126 282.584,166.626 283.5,167C 319.498,167.5 355.498,167.667 391.5,167.5C 391.5,215.5 391.5,263.5 391.5,311.5C 300.833,311.5 210.167,311.5 119.5,311.5C 119.333,228.833 119.5,146.166 120,63.5C 120.68,58.9895 123.18,56.3228 127.5,55.5 Z M 295.5,68.5 C 323.299,95.7985 350.965,123.298 378.5,151C 350.835,151.5 323.169,151.667 295.5,151.5C 295.5,123.833 295.5,96.1667 295.5,68.5 Z M 63.5,327.5 C 191.5,327.333 319.5,327.5 447.5,328C 452,328.5 454.5,331 455,335.5C 455.667,372.833 455.667,410.167 455,447.5C 454.5,452 452,454.5 447.5,455C 319.5,455.667 191.5,455.667 63.5,455C 59,454.5 56.5,452 56,447.5C 55.3333,410.167 55.3333,372.833 56,335.5C 56.6804,330.989 59.1804,328.323 63.5,327.5 Z M 279.5,360.5 C 298.828,361.828 309.162,372.162 310.5,391.5C 309.162,410.838 298.828,421.172 279.5,422.5C 279.5,401.833 279.5,381.167 279.5,360.5 Z"/></g>
<g><path style="opacity:0.993" fill="#87ceeb" d="M 139.5,87.5 C 174.168,87.3333 208.835,87.5 243.5,88C 246.516,89.5286 247.849,92.0286 247.5,95.5C 247.849,98.9714 246.516,101.471 243.5,103C 208.833,103.667 174.167,103.667 139.5,103C 136.484,101.471 135.151,98.9714 135.5,95.5C 135.282,91.9342 136.616,89.2675 139.5,87.5 Z"/></g>
<g><path style="opacity:0.992" fill="#87ceeb" d="M 139.5,135.5 C 168.835,135.333 198.169,135.5 227.5,136C 230.516,137.529 231.849,140.029 231.5,143.5C 231.849,146.971 230.516,149.471 227.5,151C 198.167,151.667 168.833,151.667 139.5,151C 136.484,149.471 135.151,146.971 135.5,143.5C 135.282,139.934 136.616,137.268 139.5,135.5 Z"/></g>
<g><path style="opacity:0.991" fill="#87ceeb" d="M 139.5,183.5 C 163.502,183.333 187.502,183.5 211.5,184C 213.333,184.5 214.5,185.667 215,187.5C 215.667,190.167 215.667,192.833 215,195.5C 214.5,197.333 213.333,198.5 211.5,199C 187.5,199.667 163.5,199.667 139.5,199C 136.484,197.471 135.151,194.971 135.5,191.5C 135.282,187.934 136.616,185.268 139.5,183.5 Z"/></g>
<g><path style="opacity:0.991" fill="#87ceeb" d="M 184.5,343.5 C 199.837,343.333 215.17,343.5 230.5,344C 238.667,346.833 244.167,352.333 247,360.5C 247.667,385.5 247.667,410.5 247,435.5C 246.5,437.333 245.333,438.5 243.5,439C 240.036,439.817 236.702,439.483 233.5,438C 232.874,437.25 232.374,436.416 232,435.5C 231.667,412.833 231.333,390.167 231,367.5C 230.5,363 228,360.5 223.5,360C 220.854,359.503 218.187,359.336 215.5,359.5C 215.667,384.836 215.5,410.169 215,435.5C 213.471,438.516 210.971,439.849 207.5,439.5C 204.029,439.849 201.529,438.516 200,435.5C 199.5,410.169 199.333,384.836 199.5,359.5C 194.92,359.113 190.586,359.947 186.5,362C 185.283,363.648 184.45,365.481 184,367.5C 183.667,390.167 183.333,412.833 183,435.5C 182.5,437.333 181.333,438.5 179.5,439C 175.756,439.929 172.256,439.429 169,437.5C 167.352,411.921 167.019,386.254 168,360.5C 171.019,352.316 176.519,346.649 184.5,343.5 Z"/></g>
<g><path style="opacity:0.982" fill="#87ceeb" d="M 267.5,343.5 C 296.084,339.645 315.584,350.978 326,377.5C 332.047,406.914 321.214,427.081 293.5,438C 284.896,439.542 276.23,439.876 267.5,439C 265.667,438.5 264.5,437.333 264,435.5C 263.333,406.167 263.333,376.833 264,347.5C 264.69,345.65 265.856,344.316 267.5,343.5 Z M 279.5,360.5 C 279.5,381.167 279.5,401.833 279.5,422.5C 298.828,421.172 309.162,410.838 310.5,391.5C 309.162,372.162 298.828,361.828 279.5,360.5 Z"/></g>
</svg>
