<?xml version="1.0" encoding="UTF-8"?>
<!DOCTYPE svg PUBLIC "-//W3C//DTD SVG 1.1//EN" "http://www.w3.org/Graphics/SVG/1.1/DTD/svg11.dtd">
<svg xmlns="http://www.w3.org/2000/svg" version="1.1" width="512px" height="512px" style="shape-rendering:geometricPrecision; text-rendering:geometricPrecision; image-rendering:optimizeQuality; fill-rule:evenodd; clip-rule:evenodd" xmlns:xlink="http://www.w3.org/1999/xlink">
<g><path style="opacity:0.984" fill="#000000" d="M 92.5,-0.5 C 162.5,-0.5 232.5,-0.5 302.5,-0.5C 308.85,1.8433 314.85,5.00997 320.5,9C 365.361,53.5276 409.861,98.3609 454,143.5C 456.837,148.172 458.837,153.172 460,158.5C 460.333,176.167 460.667,193.833 461,211.5C 470.765,218.601 477.431,227.935 481,239.5C 482.146,267.961 482.646,296.461 482.5,325C 482.646,353.539 482.146,382.039 481,410.5C 477.431,422.065 470.765,431.399 461,438.5C 460.667,448.5 460.333,458.5 460,468.5C 455.102,491.563 441.269,505.896 418.5,511.5C 309.833,511.5 201.167,511.5 92.5,511.5C 69.7313,505.896 55.898,491.563 51,468.5C 50.6667,458.5 50.3333,448.5 50,438.5C 38.7101,430.259 31.7101,419.259 29,405.5C 28.3333,351.833 28.3333,298.167 29,244.5C 31.2112,230.402 38.2112,219.402 50,211.5C 50.3333,198.5 50.6667,185.5 51,172.5C 52.6379,170.266 54.8045,168.933 57.5,168.5C 59.3885,169.322 61.3885,170.155 63.5,171C 64.1258,171.75 64.6258,172.584 65,173.5C 65.1676,184.182 65.6676,194.849 66.5,205.5C 73.776,204.535 81.1093,204.201 88.5,204.5C 183.834,204.333 279.167,204.5 374.5,205C 378.518,205.863 380.518,208.363 380.5,212.5C 379.747,215.852 377.747,218.019 374.5,219C 275.501,219.5 176.501,219.667 77.5,219.5C 66.752,219.291 57.9186,223.291 51,231.5C 48.4728,235.221 46.4728,239.221 45,243.5C 43.8504,270.62 43.3504,297.786 43.5,325C 43.6667,350.833 43.8333,376.667 44,402.5C 48.0753,420.415 59.2419,429.748 77.5,430.5C 124.168,430.333 170.835,430.5 217.5,431C 220.789,432.41 222.456,434.91 222.5,438.5C 222.161,441.669 220.495,443.836 217.5,445C 174.501,445.5 131.501,445.667 88.5,445.5C 81.1093,445.799 73.776,445.465 66.5,444.5C 62.1047,464.507 68.1047,480.34 84.5,492C 91.6901,495.851 99.3568,497.351 107.5,496.5C 211.526,496.985 315.526,496.485 419.5,495C 434.031,489.463 442.531,478.963 445,463.5C 445.5,457.175 445.666,450.842 445.5,444.5C 379.518,445.649 313.518,445.816 247.5,445C 244.507,443.841 242.84,441.675 242.5,438.5C 242.269,435.215 243.603,432.715 246.5,431C 311.5,430.667 376.5,430.333 441.5,430C 455.519,425.98 464.019,416.813 467,402.5C 467.982,349.455 467.649,296.455 466,243.5C 462.061,231.227 453.894,223.394 441.5,220C 429.167,219.667 416.833,219.333 404.5,219C 402.077,217.429 400.744,215.263 400.5,212.5C 400.269,209.215 401.603,206.715 404.5,205C 416.495,204.5 428.495,204.333 440.5,204.5C 441.919,205.451 443.585,205.784 445.5,205.5C 445.824,190.588 445.491,175.755 444.5,161C 404.787,160.977 365.12,160.31 325.5,159C 303.804,149.53 296.137,133.53 302.5,111C 303.745,110.209 305.078,109.709 306.5,109.5C 309.707,110.026 312.207,111.692 314,114.5C 312.003,129.357 317.837,139.524 331.5,145C 365.833,145.667 400.167,145.667 434.5,145C 394.667,105.167 354.833,65.3333 315,25.5C 314.667,45.1667 314.333,64.8333 314,84.5C 312.59,87.7892 310.09,89.4559 306.5,89.5C 303.737,89.2562 301.571,87.9229 300,85.5C 299.667,62.1667 299.333,38.8333 299,15.5C 291.587,14.5192 284.087,14.1858 276.5,14.5C 220.167,14.5 163.833,14.5 107.5,14.5C 85.9325,13.9121 72.0992,23.9121 66,44.5C 65.6667,77.8333 65.3333,111.167 65,144.5C 63.5897,147.789 61.0897,149.456 57.5,149.5C 54.7374,149.256 52.5707,147.923 51,145.5C 50.0328,109.461 50.3661,73.461 52,37.5C 58.3035,17.0261 71.8035,4.35947 92.5,-0.5 Z"/></g>
<g><path style="opacity:1" fill="#e1dee2" d="M 107.5,14.5 C 98.378,21.3904 92.2113,30.3904 89,41.5C 88.5,95.8323 88.3333,150.166 88.5,204.5C 81.1093,204.201 73.776,204.535 66.5,205.5C 65.6676,194.849 65.1676,184.182 65,173.5C 64.6258,172.584 64.1258,171.75 63.5,171C 61.3885,170.155 59.3885,169.322 57.5,168.5C 57.5,162.167 57.5,155.833 57.5,149.5C 61.0897,149.456 63.5897,147.789 65,144.5C 65.3333,111.167 65.6667,77.8333 66,44.5C 72.0992,23.9121 85.9325,13.9121 107.5,14.5 Z"/></g>
<g><path style="opacity:1" fill="#f8f7f8" d="M 107.5,14.5 C 163.833,14.5 220.167,14.5 276.5,14.5C 276.333,53.1681 276.5,91.8348 277,130.5C 283.309,159.81 301.143,177.31 330.5,183C 368.499,183.5 406.499,183.667 444.5,183.5C 444.5,190.5 444.5,197.5 444.5,204.5C 443.167,204.5 441.833,204.5 440.5,204.5C 428.495,204.333 416.495,204.5 404.5,205C 401.603,206.715 400.269,209.215 400.5,212.5C 393.833,212.5 387.167,212.5 380.5,212.5C 380.518,208.363 378.518,205.863 374.5,205C 279.167,204.5 183.834,204.333 88.5,204.5C 88.3333,150.166 88.5,95.8323 89,41.5C 92.2113,30.3904 98.378,21.3904 107.5,14.5 Z"/></g>
<g><path style="opacity:1" fill="#e1dee2" d="M 276.5,14.5 C 284.087,14.1858 291.587,14.5192 299,15.5C 299.333,38.8333 299.667,62.1667 300,85.5C 301.571,87.9229 303.737,89.2562 306.5,89.5C 306.5,96.1667 306.5,102.833 306.5,109.5C 305.078,109.709 303.745,110.209 302.5,111C 296.137,133.53 303.804,149.53 325.5,159C 365.12,160.31 404.787,160.977 444.5,161C 445.491,175.755 445.824,190.588 445.5,205.5C 443.585,205.784 441.919,205.451 440.5,204.5C 441.833,204.5 443.167,204.5 444.5,204.5C 444.5,197.5 444.5,190.5 444.5,183.5C 406.499,183.667 368.499,183.5 330.5,183C 301.143,177.31 283.309,159.81 277,130.5C 276.5,91.8348 276.333,53.1681 276.5,14.5 Z"/></g>
<g><path style="opacity:1" fill="#da4854" d="M 306.5,109.5 C 306.5,102.833 306.5,96.1667 306.5,89.5C 310.09,89.4559 312.59,87.7892 314,84.5C 314.333,64.8333 314.667,45.1667 315,25.5C 354.833,65.3333 394.667,105.167 434.5,145C 400.167,145.667 365.833,145.667 331.5,145C 317.837,139.524 312.003,129.357 314,114.5C 312.207,111.692 309.707,110.026 306.5,109.5 Z"/></g>
<g><path style="opacity:1" fill="#db4854" d="M 380.5,212.5 C 387.167,212.5 393.833,212.5 400.5,212.5C 400.744,215.263 402.077,217.429 404.5,219C 416.833,219.333 429.167,219.667 441.5,220C 453.894,223.394 462.061,231.227 466,243.5C 467.649,296.455 467.982,349.455 467,402.5C 464.019,416.813 455.519,425.98 441.5,430C 376.5,430.333 311.5,430.667 246.5,431C 243.603,432.715 242.269,435.215 242.5,438.5C 235.833,438.5 229.167,438.5 222.5,438.5C 222.456,434.91 220.789,432.41 217.5,431C 170.835,430.5 124.168,430.333 77.5,430.5C 70.7042,424.926 65.8708,417.926 63,409.5C 61.863,381.029 61.363,352.529 61.5,324C 61.6667,297.833 61.8333,271.667 62,245.5C 64.0911,234.929 69.2578,226.262 77.5,219.5C 176.501,219.667 275.501,219.5 374.5,219C 377.747,218.019 379.747,215.852 380.5,212.5 Z"/></g>
<g><path style="opacity:1" fill="#bf232e" d="M 77.5,219.5 C 69.2578,226.262 64.0911,234.929 62,245.5C 61.8333,271.667 61.6667,297.833 61.5,324C 61.363,352.529 61.863,381.029 63,409.5C 65.8708,417.926 70.7042,424.926 77.5,430.5C 59.2419,429.748 48.0753,420.415 44,402.5C 43.8333,376.667 43.6667,350.833 43.5,325C 43.3504,297.786 43.8504,270.62 45,243.5C 46.4728,239.221 48.4728,235.221 51,231.5C 57.9186,223.291 66.752,219.291 77.5,219.5 Z"/></g>
<g><path style="opacity:1" fill="#050101" d="M 163.5,339.5 C 153.833,339.5 144.167,339.5 134.5,339.5C 134.5,354.167 134.5,368.833 134.5,383.5C 132.129,389.181 128.129,390.681 122.5,388C 121.54,386.581 120.707,385.081 120,383.5C 119.333,344.167 119.333,304.833 120,265.5C 120.948,263.43 122.448,261.93 124.5,261C 139.869,260.121 155.203,260.454 170.5,262C 195.013,272.193 203.513,290.026 196,315.5C 189.394,329.22 178.561,337.22 163.5,339.5 Z"/></g>
<g><path style="opacity:1" fill="#050101" d="M 335.5,260.5 C 352.17,260.333 368.837,260.5 385.5,261C 392.466,264.846 393.133,269.513 387.5,275C 373.504,275.5 359.504,275.667 345.5,275.5C 345.5,289.167 345.5,302.833 345.5,316.5C 357.838,316.333 370.171,316.5 382.5,317C 387.626,319.553 388.793,323.386 386,328.5C 384.829,329.893 383.329,330.727 381.5,331C 369.505,331.5 357.505,331.667 345.5,331.5C 345.667,348.837 345.5,366.17 345,383.5C 342.087,388.689 337.92,389.856 332.5,387C 331.874,386.25 331.374,385.416 331,384.5C 330.333,344.833 330.333,305.167 331,265.5C 332.193,263.503 333.693,261.836 335.5,260.5 Z"/></g>
<g><path style="opacity:1" fill="#030101" d="M 223.5,262.5 C 237.504,262.333 251.504,262.5 265.5,263C 288.07,267.567 302.236,281.067 308,303.5C 313.252,326.75 309.585,348.417 297,368.5C 288.621,378.94 277.788,385.107 264.5,387C 250.833,387.667 237.167,387.667 223.5,387C 221.951,385.786 220.785,384.286 220,382.5C 219.333,343.833 219.333,305.167 220,266.5C 221.376,265.295 222.542,263.962 223.5,262.5 Z"/></g>
<g><path style="opacity:1" fill="#da4854" d="M 135.5,275.5 C 145.172,275.334 154.839,275.5 164.5,276C 182.574,282.574 188.074,294.741 181,312.5C 176.419,319.574 169.919,323.574 161.5,324.5C 152.833,324.5 144.167,324.5 135.5,324.5C 135.5,308.167 135.5,291.833 135.5,275.5 Z"/></g>
<g><path style="opacity:1" fill="#db4854" d="M 234.5,277.5 C 245.505,277.333 256.505,277.5 267.5,278C 284.012,284.483 293.179,296.65 295,314.5C 298.406,358.597 278.239,377.93 234.5,372.5C 234.5,340.833 234.5,309.167 234.5,277.5 Z"/></g>
<g><path style="opacity:1" fill="#75272d" d="M 135.5,275.5 C 135.5,291.833 135.5,308.167 135.5,324.5C 144.167,324.5 152.833,324.5 161.5,324.5C 152.682,325.493 143.682,325.827 134.5,325.5C 134.17,308.658 134.503,291.992 135.5,275.5 Z"/></g>
<g><path style="opacity:1" fill="#953139" d="M 163.5,339.5 C 154.348,340.494 145.015,340.827 135.5,340.5C 135.829,355.01 135.496,369.343 134.5,383.5C 134.5,368.833 134.5,354.167 134.5,339.5C 144.167,339.5 153.833,339.5 163.5,339.5 Z"/></g>
<g><path style="opacity:1" fill="#f8f7f8" d="M 222.5,438.5 C 229.167,438.5 235.833,438.5 242.5,438.5C 242.84,441.675 244.507,443.841 247.5,445C 313.518,445.816 379.518,445.649 445.5,444.5C 445.666,450.842 445.5,457.175 445,463.5C 442.531,478.963 434.031,489.463 419.5,495C 315.526,496.485 211.526,496.985 107.5,496.5C 91.5439,483.32 85.2106,466.32 88.5,445.5C 131.501,445.667 174.501,445.5 217.5,445C 220.495,443.836 222.161,441.669 222.5,438.5 Z"/></g>
<g><path style="opacity:1" fill="#e0dde1" d="M 88.5,445.5 C 85.2106,466.32 91.5439,483.32 107.5,496.5C 99.3568,497.351 91.6901,495.851 84.5,492C 68.1047,480.34 62.1047,464.507 66.5,444.5C 73.776,445.465 81.1093,445.799 88.5,445.5 Z"/></g>
</svg>
