<?xml version="1.0" encoding="UTF-8"?>
<!DOCTYPE svg PUBLIC "-//W3C//DTD SVG 1.1//EN" "http://www.w3.org/Graphics/SVG/1.1/DTD/svg11.dtd">
<svg xmlns="http://www.w3.org/2000/svg" version="1.1" width="512px" height="512px" style="shape-rendering:geometricPrecision; text-rendering:geometricPrecision; image-rendering:optimizeQuality; fill-rule:evenodd; clip-rule:evenodd" xmlns:xlink="http://www.w3.org/1999/xlink">
<g><path style="opacity:0.986" fill="#f94851" d="M 133.5,-0.5 C 200.167,-0.5 266.833,-0.5 333.5,-0.5C 382.799,47.966 431.633,96.966 480,146.5C 480.667,256.833 480.667,367.167 480,477.5C 475.318,495.348 464.151,506.681 446.5,511.5C 342.167,511.5 237.833,511.5 133.5,511.5C 115.849,506.681 104.682,495.348 100,477.5C 99.5,414.501 99.3333,351.501 99.5,288.5C 80.8304,288.667 62.1637,288.5 43.5,288C 37.1939,286.945 33.0272,283.445 31,277.5C 30.3333,235.833 30.3333,194.167 31,152.5C 32.9268,147.572 36.4268,144.406 41.5,143C 60.8305,142.5 80.1638,142.333 99.5,142.5C 99.3333,106.165 99.5,69.8318 100,33.5C 104.682,15.6521 115.849,4.31874 133.5,-0.5 Z M 142.5,13.5 C 202.5,13.5 262.5,13.5 322.5,13.5C 322.333,54.168 322.5,94.8347 323,135.5C 326.268,147.101 333.768,154.268 345.5,157C 385.499,157.5 425.499,157.667 465.5,157.5C 465.667,263.167 465.5,368.834 465,474.5C 460.943,488.222 451.777,495.722 437.5,497C 339.167,497.667 240.833,497.667 142.5,497C 128.66,495.828 119.493,488.661 115,475.5C 114.5,413.168 114.333,350.834 114.5,288.5C 179.212,288.986 243.879,288.486 308.5,287C 312.817,284.685 315.65,281.185 317,276.5C 317.667,235.5 317.667,194.5 317,153.5C 315.802,149.254 313.302,146.087 309.5,144C 244.558,142.511 179.558,142.011 114.5,142.5C 114.333,106.832 114.5,71.1651 115,35.5C 119.655,22.3288 128.822,14.9954 142.5,13.5 Z M 83.5,174.5 C 94.1719,174.333 104.839,174.5 115.5,175C 133.023,179.879 139.19,191.045 134,208.5C 130.357,214.469 125.19,218.636 118.5,221C 109.506,221.5 100.506,221.666 91.5,221.5C 91.9262,231.912 91.4262,242.246 90,252.5C 86.3333,256.5 82.6667,256.5 79,252.5C 78.3333,227.833 78.3333,203.167 79,178.5C 80.2499,176.807 81.7499,175.473 83.5,174.5 Z M 150.5,174.5 C 159.173,174.334 167.84,174.5 176.5,175C 188.107,176.607 196.274,182.773 201,193.5C 202.591,206.777 202.924,220.11 202,233.5C 198.732,245.101 191.232,252.268 179.5,255C 169.167,255.667 158.833,255.667 148.5,255C 146.951,253.786 145.785,252.286 145,250.5C 144.333,226.833 144.333,203.167 145,179.5C 146.107,176.887 147.94,175.22 150.5,174.5 Z M 216.5,174.5 C 232.503,174.333 248.503,174.5 264.5,175C 270.599,178.676 270.932,182.676 265.5,187C 251.837,187.5 238.171,187.667 224.5,187.5C 224.5,194.5 224.5,201.5 224.5,208.5C 235.505,208.333 246.505,208.5 257.5,209C 262.038,210.664 263.538,213.831 262,218.5C 261.097,219.701 259.931,220.535 258.5,221C 247.172,221.5 235.838,221.667 224.5,221.5C 224.666,231.172 224.5,240.839 224,250.5C 220.421,256.753 216.421,257.086 212,251.5C 211.333,227.167 211.333,202.833 212,178.5C 213.397,176.93 214.897,175.596 216.5,174.5 Z"/></g>
<g><path style="opacity:0.981" fill="#f94851" d="M 91.5,187.5 C 99.1739,187.334 106.841,187.5 114.5,188C 123.236,191.317 125.403,197.15 121,205.5C 119.581,206.46 118.081,207.293 116.5,208C 108.173,208.5 99.84,208.666 91.5,208.5C 91.5,201.5 91.5,194.5 91.5,187.5 Z"/></g>
<g><path style="opacity:0.99" fill="#f94852" d="M 157.5,187.5 C 163.509,187.334 169.509,187.501 175.5,188C 182.049,188.884 186.549,192.384 189,198.5C 189.667,209.833 189.667,221.167 189,232.5C 187.098,237.4 183.598,240.567 178.5,242C 171.508,242.5 164.508,242.666 157.5,242.5C 157.5,224.167 157.5,205.833 157.5,187.5 Z"/></g>
<g><path style="opacity:0.994" fill="#f94851" d="M 158.5,331.5 C 246.167,331.333 333.834,331.5 421.5,332C 428.319,333.814 430.153,337.98 427,344.5C 426.25,345.126 425.416,345.626 424.5,346C 334.833,346.667 245.167,346.667 155.5,346C 150.584,342.134 150.251,337.801 154.5,333C 156.058,332.79 157.391,332.29 158.5,331.5 Z"/></g>
<g><path style="opacity:0.97" fill="#f84851" d="M 155.5,384.5 C 245.167,384.333 334.834,384.5 424.5,385C 430.062,390.163 429.729,394.829 423.5,399C 334.5,399.667 245.5,399.667 156.5,399C 151.857,396.928 150.357,393.428 152,388.5C 153.376,387.295 154.542,385.962 155.5,384.5 Z"/></g>
<g><path style="opacity:0.994" fill="#f94851" d="M 158.5,436.5 C 246.167,436.333 333.834,436.5 421.5,437C 428.319,438.814 430.153,442.98 427,449.5C 426.25,450.126 425.416,450.626 424.5,451C 334.833,451.667 245.167,451.667 155.5,451C 150.584,447.134 150.251,442.801 154.5,438C 156.058,437.79 157.391,437.29 158.5,436.5 Z"/></g>
</svg>
