<?xml version="1.0" encoding="UTF-8"?>
<!DOCTYPE svg PUBLIC "-//W3C//DTD SVG 1.1//EN" "http://www.w3.org/Graphics/SVG/1.1/DTD/svg11.dtd">
<svg xmlns="http://www.w3.org/2000/svg" version="1.1" width="512px" height="512px" style="shape-rendering:geometricPrecision; text-rendering:geometricPrecision; image-rendering:optimizeQuality; fill-rule:evenodd; clip-rule:evenodd" xmlns:xlink="http://www.w3.org/1999/xlink">
<g><path style="opacity:0.999" fill="#dceafc" d="M 479.5,328.5 C 444.036,295.538 408.703,262.372 373.5,229C 367.5,225.667 361.5,225.667 355.5,229C 335.632,249.035 315.632,268.868 295.5,288.5C 269.368,262.868 243.368,237.035 217.5,211C 210.765,206.411 204.098,206.411 197.5,211C 142.299,266.368 86.9654,321.535 31.5,376.5C 31.3333,273.499 31.5,170.499 32,67.5C 38.5,39.6667 55.6667,22.5 83.5,16C 198.167,15.3333 312.833,15.3333 427.5,16C 455.333,22.5 472.5,39.6667 479,67.5C 479.5,154.499 479.667,241.499 479.5,328.5 Z"/></g>
<g><path style="opacity:1" fill="#5392f9" d="M 296.5,127.5 C 325.962,126.301 344.129,139.967 351,168.5C 352.66,198.503 338.827,216.669 309.5,223C 289.92,224.626 274.42,217.459 263,201.5C 249.68,175.326 254.514,153.159 277.5,135C 283.509,131.316 289.842,128.816 296.5,127.5 Z"/></g>
<g><path style="opacity:1" fill="#5392f9" d="M 295.5,288.5 C 353.465,346.965 411.632,405.299 470,463.5C 470.383,462.944 470.883,462.611 471.5,462.5C 462.152,480.324 447.486,491.158 427.5,495C 312.833,495.667 198.167,495.667 83.5,495C 55.6667,488.5 38.5,471.333 32,443.5C 31.5,421.169 31.3334,398.836 31.5,376.5C 86.9654,321.535 142.299,266.368 197.5,211C 204.098,206.411 210.765,206.411 217.5,211C 243.368,237.035 269.368,262.868 295.5,288.5 Z"/></g>
<g><path style="opacity:1" fill="#4071f7" d="M 479.5,328.5 C 479.667,366.835 479.5,405.168 479,443.5C 478.249,448.211 476.749,452.544 474.5,456.5C 473.069,457.78 472.402,459.447 472.5,461.5C 472.5,462.167 472.167,462.5 471.5,462.5C 470.883,462.611 470.383,462.944 470,463.5C 411.632,405.299 353.465,346.965 295.5,288.5C 315.632,268.868 335.632,249.035 355.5,229C 361.5,225.667 367.5,225.667 373.5,229C 408.703,262.372 444.036,295.538 479.5,328.5 Z"/></g>
<g><path style="opacity:0.447" fill="#b2c5fc" d="M 474.5,456.5 C 474.598,458.553 473.931,460.22 472.5,461.5C 472.402,459.447 473.069,457.78 474.5,456.5 Z"/></g>
</svg>
