<?xml version="1.0" encoding="UTF-8"?>
<!DOCTYPE svg PUBLIC "-//W3C//DTD SVG 1.1//EN" "http://www.w3.org/Graphics/SVG/1.1/DTD/svg11.dtd">
<svg xmlns="http://www.w3.org/2000/svg" version="1.1" width="512px" height="512px" style="shape-rendering:geometricPrecision; text-rendering:geometricPrecision; image-rendering:optimizeQuality; fill-rule:evenodd; clip-rule:evenodd" xmlns:xlink="http://www.w3.org/1999/xlink">
<g><path style="opacity:0.993" fill="#ff5722" d="M 511.5,58.5 C 511.5,189.833 511.5,321.167 511.5,452.5C 509.954,455.2 507.621,457.033 504.5,458C 435.834,458.5 367.167,458.667 298.5,458.5C 298.667,470.505 298.5,482.505 298,494.5C 295.893,499.273 292.226,501.606 287,501.5C 195.167,487.333 103.333,473.167 11.5,459C 6.40146,458.621 2.40146,456.455 -0.5,452.5C -0.5,328.167 -0.5,203.833 -0.5,79.5C 3.75025,75.0118 9.08358,72.5118 15.5,72C 106.168,51.1663 196.835,30.333 287.5,9.5C 292.275,9.96783 295.775,12.3012 298,16.5C 298.5,28.4954 298.667,40.4954 298.5,52.5C 367.167,52.3333 435.834,52.5 504.5,53C 507.621,53.9668 509.954,55.8001 511.5,58.5 Z M 298.5,74.5 C 362.167,74.5 425.833,74.5 489.5,74.5C 489.5,195.167 489.5,315.833 489.5,436.5C 425.833,436.5 362.167,436.5 298.5,436.5C 298.5,422.5 298.5,408.5 298.5,394.5C 345.835,394.667 393.168,394.5 440.5,394C 445.704,392.428 448.037,388.928 447.5,383.5C 448.037,378.072 445.704,374.572 440.5,373C 393.168,372.5 345.835,372.333 298.5,372.5C 298.5,358.5 298.5,344.5 298.5,330.5C 345.835,330.667 393.168,330.5 440.5,330C 445.704,328.428 448.037,324.928 447.5,319.5C 448.037,314.072 445.704,310.572 440.5,309C 393.168,308.5 345.835,308.333 298.5,308.5C 298.333,294.496 298.5,280.496 299,266.5C 323.282,288.489 350.782,293.656 381.5,282C 406.237,270.093 420.904,250.593 425.5,223.5C 407.497,223.667 389.497,223.5 371.5,223C 356.117,220.952 346.284,212.452 342,197.5C 341.833,177.825 341.333,158.158 340.5,138.5C 324.382,141.142 310.548,148.142 299,159.5C 298.5,131.169 298.333,102.835 298.5,74.5 Z"/></g>
<g><path style="opacity:0.983" fill="#ff5721" d="M 369.5,116.5 C 403.123,116.389 427.289,131.389 442,161.5C 446.779,172.729 448.446,184.396 447,196.5C 445.749,199.381 443.583,201.214 440.5,202C 416.5,202.667 392.5,202.667 368.5,202C 365.272,200.437 363.105,197.937 362,194.5C 361.333,171.167 361.333,147.833 362,124.5C 363.38,120.625 365.88,117.958 369.5,116.5 Z"/></g>
<g><path style="opacity:1" fill="#faf7f7" d="M 91.5,159.5 C 109.17,159.333 126.836,159.5 144.5,160C 170.232,164.732 185.732,179.899 191,205.5C 191.866,219.537 191.532,233.537 190,247.5C 183.833,267 171,279.833 151.5,286C 136.54,287.376 121.54,287.876 106.5,287.5C 106.667,306.17 106.5,324.836 106,343.5C 102.54,350.812 97.0405,352.979 89.5,350C 87.3834,348.269 85.8834,346.102 85,343.5C 84.3333,284.833 84.3333,226.167 85,167.5C 86.3046,164.039 88.4713,161.372 91.5,159.5 Z"/></g>
<g><path style="opacity:1" fill="#fcbaa5" d="M 142.5,181.5 C 130.5,181.5 118.5,181.5 106.5,181.5C 106.5,209.833 106.5,238.167 106.5,266.5C 105.502,238.005 105.169,209.338 105.5,180.5C 118.011,180.171 130.345,180.505 142.5,181.5 Z"/></g>
<g><path style="opacity:1" fill="#ff5823" d="M 142.5,181.5 C 155.688,183.516 164.521,190.849 169,203.5C 178.336,253.999 157.503,274.999 106.5,266.5C 106.5,238.167 106.5,209.833 106.5,181.5C 118.5,181.5 130.5,181.5 142.5,181.5 Z"/></g>
</svg>
