<?xml version="1.0" encoding="UTF-8"?>
<!DOCTYPE svg PUBLIC "-//W3C//DTD SVG 1.1//EN" "http://www.w3.org/Graphics/SVG/1.1/DTD/svg11.dtd">
<svg xmlns="http://www.w3.org/2000/svg" version="1.1" width="512px" height="588px" style="shape-rendering:geometricPrecision; text-rendering:geometricPrecision; image-rendering:optimizeQuality; fill-rule:evenodd; clip-rule:evenodd" xmlns:xlink="http://www.w3.org/1999/xlink">
<g><path style="opacity:0.99" fill="#353535" d="M 100.5,-0.5 C 200.833,-0.5 301.167,-0.5 401.5,-0.5C 403.568,0.374833 405.568,1.5415 407.5,3C 441,36.5 474.5,70 508,103.5C 508.941,105.727 510.108,107.727 511.5,109.5C 511.5,258.833 511.5,408.167 511.5,557.5C 507.273,572.728 497.606,582.728 482.5,587.5C 355.167,587.5 227.833,587.5 100.5,587.5C 82.8566,582.013 73.0233,570.013 71,551.5C 70.5,529.169 70.3334,506.836 70.5,484.5C 45.5676,488.096 25.0676,480.43 9,461.5C 4.74097,454.53 1.57431,447.196 -0.5,439.5C -0.5,360.5 -0.5,281.5 -0.5,202.5C 4.77242,179.725 18.7724,165.225 41.5,159C 51.116,157.676 60.7827,157.176 70.5,157.5C 70.0442,114.473 70.5442,71.4731 72,28.5C 76.3497,13.6512 85.8497,3.98451 100.5,-0.5 Z"/></g>
<g><path style="opacity:1" fill="#c1c8fb" d="M 81.5,552.5 C 81.5,529.833 81.5,507.167 81.5,484.5C 192.668,484.833 303.668,484.499 414.5,483.5C 436.076,479.758 448.909,467.091 453,445.5C 453.667,395.5 453.667,345.5 453,295.5C 448.722,274.889 436.222,262.722 415.5,259C 304.167,258.5 192.834,258.333 81.5,258.5C 81.3333,182.499 81.5,106.499 82,30.5C 85.5,20.3333 92.3333,13.5 102.5,10C 198.166,9.5 293.833,9.33334 389.5,9.5C 389.333,40.5018 389.5,71.5018 390,102.5C 392.766,111.598 398.599,117.765 407.5,121C 438.832,121.5 470.165,121.667 501.5,121.5C 501.667,266.5 501.5,411.5 501,556.5C 497.396,567.105 490.229,573.938 479.5,577C 353.5,577.667 227.5,577.667 101.5,577C 90.1885,572.531 83.5218,564.364 81.5,552.5 Z"/></g>
<g><path style="opacity:1" fill="#6c6f81" d="M 400.5,10.5 C 399.502,39.6619 399.169,68.9953 399.5,98.5C 398.17,68.9973 398.17,39.3306 399.5,9.5C 400.107,9.62358 400.44,9.95691 400.5,10.5 Z"/></g>
<g><path style="opacity:1" fill="#adb2d9" d="M 400.5,10.5 C 434.167,43.5 467.5,76.8333 500.5,110.5C 471.005,111.498 441.338,111.831 411.5,111.5C 404.087,110.354 400.087,106.021 399.5,98.5C 399.169,68.9953 399.502,39.6619 400.5,10.5 Z"/></g>
<g><path style="opacity:1" fill="#363639" d="M 148.5,67.5 C 215.167,67.3333 281.834,67.5 348.5,68C 356.451,70.2854 362.285,75.1187 366,82.5C 367.59,92.4255 367.923,102.426 367,112.5C 364.421,123.411 357.587,129.911 346.5,132C 281.167,132.667 215.833,132.667 150.5,132C 134.897,126.87 127.897,116.036 129.5,99.5C 128.21,84.0514 134.543,73.3847 148.5,67.5 Z"/></g>
<g><path style="opacity:1" fill="#3a49bb" d="M 148.5,77.5 C 215.167,77.3333 281.834,77.5 348.5,78C 353.147,80.1058 356.314,83.6058 358,88.5C 358.667,95.5 358.667,102.5 358,109.5C 356.5,116.333 352.333,120.5 345.5,122C 280.5,122.667 215.5,122.667 150.5,122C 145.667,119.833 142.167,116.333 140,111.5C 139.333,103.5 139.333,95.5 140,87.5C 141.978,83.3619 144.811,80.0286 148.5,77.5 Z"/></g>
<g><path style="opacity:1" fill="#54555f" d="M 500.5,110.5 C 501.043,110.56 501.376,110.893 501.5,111.5C 471.336,112.83 441.336,112.83 411.5,111.5C 441.338,111.831 471.005,111.498 500.5,110.5 Z"/></g>
<g><path style="opacity:1" fill="#363638" d="M 150.5,157.5 C 244.167,157.333 337.834,157.5 431.5,158C 442.491,160.326 449.658,166.826 453,177.5C 453.667,185.167 453.667,192.833 453,200.5C 450.711,211.457 444.211,218.624 433.5,222C 338.5,222.667 243.5,222.667 148.5,222C 134.249,216.182 127.916,205.515 129.5,190C 128.322,173.711 135.322,162.877 150.5,157.5 Z"/></g>
<g><path style="opacity:1" fill="#3742a0" d="M 46.5,167.5 C 54.8333,167.5 63.1667,167.5 71.5,167.5C 71.5,197.833 71.5,228.167 71.5,258.5C 50.8997,261.91 33.3997,256.243 19,241.5C 7.53113,224.46 6.53113,206.793 16,188.5C 23.6644,177.638 33.8311,170.638 46.5,167.5 Z"/></g>
<g><path style="opacity:1" fill="#3a49bc" d="M 150.5,167.5 C 244.501,167.333 338.501,167.5 432.5,168C 437.333,170.167 440.833,173.667 443,178.5C 443.667,186.167 443.667,193.833 443,201.5C 441.474,207.026 437.974,210.526 432.5,212C 338.167,212.667 243.833,212.667 149.5,212C 145.725,210.558 142.892,208.058 141,204.5C 139.458,195.896 139.124,187.23 140,178.5C 142.357,173.645 145.857,169.979 150.5,167.5 Z"/></g>
<g><path style="opacity:1" fill="#363b6b" d="M 10.5,245.5 C 9.50089,308.331 9.16756,371.331 9.5,434.5C 8.1684,371.332 8.1684,307.999 9.5,244.5C 10.1067,244.624 10.44,244.957 10.5,245.5 Z"/></g>
<g><path style="opacity:1" fill="#3b4abc" d="M 10.5,245.5 C 18.7889,256.656 29.7889,263.822 43.5,267C 168.868,267.009 294.201,267.676 419.5,269C 431.502,273.669 439.336,282.169 443,294.5C 443.667,345.5 443.667,396.5 443,447.5C 438.5,462.336 428.667,471.169 413.5,474C 291.167,474.667 168.833,474.667 46.5,474C 25.7173,468.718 13.384,455.551 9.5,434.5C 9.16756,371.331 9.50089,308.331 10.5,245.5 Z"/></g>
<g><path style="opacity:1" fill="#f6f6f6" d="M 188.5,438.5 C 181.687,439.491 174.687,439.825 167.5,439.5C 166.732,438.737 166.232,437.737 166,436.5C 165.667,421.5 165.333,406.5 165,391.5C 164.346,385.681 161.179,382.348 155.5,381.5C 151.702,380.517 147.702,380.183 143.5,380.5C 143.5,400.167 143.5,419.833 143.5,439.5C 136.5,439.5 129.5,439.5 122.5,439.5C 122.5,393.833 122.5,348.167 122.5,302.5C 136.504,302.333 150.504,302.5 164.5,303C 181.42,307.634 188.753,318.801 186.5,336.5C 187.317,346.593 185.15,355.926 180,364.5C 177.743,366.046 175.576,367.712 173.5,369.5C 180.534,373.037 184.7,378.704 186,386.5C 186.333,400.833 186.667,415.167 187,429.5C 187.363,432.544 187.863,435.544 188.5,438.5 Z"/></g>
<g><path style="opacity:1" fill="#f6f6f6" d="M 262.5,321.5 C 254.833,321.5 247.167,321.5 239.5,321.5C 239.5,360.833 239.5,400.167 239.5,439.5C 232.5,439.5 225.5,439.5 218.5,439.5C 218.5,400.167 218.5,360.833 218.5,321.5C 210.833,321.5 203.167,321.5 195.5,321.5C 195.5,315.167 195.5,308.833 195.5,302.5C 217.833,302.5 240.167,302.5 262.5,302.5C 262.5,308.833 262.5,315.167 262.5,321.5 Z"/></g>
<g><path style="opacity:1" fill="#f6f6f6" d="M 330.5,321.5 C 318.5,321.5 306.5,321.5 294.5,321.5C 294.5,334.5 294.5,347.5 294.5,360.5C 303.833,360.5 313.167,360.5 322.5,360.5C 322.5,366.833 322.5,373.167 322.5,379.5C 313.167,379.5 303.833,379.5 294.5,379.5C 294.5,399.5 294.5,419.5 294.5,439.5C 287.5,439.5 280.5,439.5 273.5,439.5C 273.5,393.833 273.5,348.167 273.5,302.5C 292.5,302.5 311.5,302.5 330.5,302.5C 330.5,308.833 330.5,315.167 330.5,321.5 Z"/></g>
<g><path style="opacity:1" fill="#a9afdf" d="M 144.5,321.5 C 144.5,334.5 144.5,347.5 144.5,360.5C 148.167,360.5 151.833,360.5 155.5,360.5C 151.702,361.483 147.702,361.817 143.5,361.5C 143.171,347.99 143.504,334.656 144.5,321.5 Z"/></g>
<g><path style="opacity:1" fill="#3d4bbd" d="M 144.5,321.5 C 150.434,320.889 156.1,321.722 161.5,324C 162.46,325.419 163.293,326.919 164,328.5C 164.667,336.5 164.667,344.5 164,352.5C 163.233,357.435 160.4,360.102 155.5,360.5C 151.833,360.5 148.167,360.5 144.5,360.5C 144.5,347.5 144.5,334.5 144.5,321.5 Z"/></g>
<g><path style="opacity:1" fill="#727dce" d="M 195.5,321.5 C 203.167,321.5 210.833,321.5 218.5,321.5C 218.5,360.833 218.5,400.167 218.5,439.5C 217.501,400.67 217.168,361.67 217.5,322.5C 209.981,322.825 202.648,322.492 195.5,321.5 Z"/></g>
<g><path style="opacity:1" fill="#8891d4" d="M 262.5,321.5 C 255.352,322.492 248.019,322.825 240.5,322.5C 240.832,361.67 240.499,400.67 239.5,439.5C 239.5,400.167 239.5,360.833 239.5,321.5C 247.167,321.5 254.833,321.5 262.5,321.5 Z"/></g>
<g><path style="opacity:1" fill="#717bcd" d="M 330.5,321.5 C 319.012,322.495 307.345,322.828 295.5,322.5C 295.5,334.833 295.5,347.167 295.5,359.5C 304.682,359.173 313.682,359.507 322.5,360.5C 313.167,360.5 303.833,360.5 294.5,360.5C 294.5,347.5 294.5,334.5 294.5,321.5C 306.5,321.5 318.5,321.5 330.5,321.5 Z"/></g>
<g><path style="opacity:1" fill="#727cce" d="M 322.5,379.5 C 313.682,380.493 304.682,380.827 295.5,380.5C 295.83,400.34 295.497,420.007 294.5,439.5C 294.5,419.5 294.5,399.5 294.5,379.5C 303.833,379.5 313.167,379.5 322.5,379.5 Z"/></g>
<g><path style="opacity:1" fill="#9199d7" d="M 155.5,381.5 C 151.833,381.5 148.167,381.5 144.5,381.5C 144.5,401.167 144.5,420.833 144.5,440.5C 136.981,440.825 129.648,440.492 122.5,439.5C 129.5,439.5 136.5,439.5 143.5,439.5C 143.5,419.833 143.5,400.167 143.5,380.5C 147.702,380.183 151.702,380.517 155.5,381.5 Z"/></g>
<g><path style="opacity:1" fill="#7781cf" d="M 188.5,438.5 C 189.043,438.56 189.376,438.893 189.5,439.5C 182.01,440.819 174.677,440.819 167.5,439.5C 174.687,439.825 181.687,439.491 188.5,438.5 Z"/></g>
<g><path style="opacity:1" fill="#696c7f" d="M 414.5,483.5 C 303.668,484.499 192.668,484.833 81.5,484.5C 81.5,507.167 81.5,529.833 81.5,552.5C 80.5025,529.673 80.1692,506.673 80.5,483.5C 191.833,483.5 303.167,483.5 414.5,483.5 Z"/></g>
</svg>
