<?xml version="1.0" encoding="UTF-8"?>
<!DOCTYPE svg PUBLIC "-//W3C//DTD SVG 1.1//EN" "http://www.w3.org/Graphics/SVG/1.1/DTD/svg11.dtd">
<svg xmlns="http://www.w3.org/2000/svg" version="1.1" width="512px" height="512px" style="shape-rendering:geometricPrecision; text-rendering:geometricPrecision; image-rendering:optimizeQuality; fill-rule:evenodd; clip-rule:evenodd" xmlns:xlink="http://www.w3.org/1999/xlink">
<g><path style="opacity:0.999" fill="#e1e4e6" d="M 119.5,-0.5 C 196.833,-0.5 274.167,-0.5 351.5,-0.5C 351.333,33.835 351.5,68.1683 352,102.5C 357.231,118.243 368.065,126.576 384.5,127.5C 415.833,159.5 447.5,191.167 479.5,222.5C 479.667,310.834 479.5,399.167 479,487.5C 477.608,493.214 474.941,498.214 471,502.5C 466.4,506.626 461.234,509.626 455.5,511.5C 343.5,511.5 231.5,511.5 119.5,511.5C 110.081,508.252 102.914,502.252 98,493.5C 97.3333,491.5 96.6667,489.5 96,487.5C 95.5001,474.171 95.3334,460.837 95.5,447.5C 198.167,447.667 300.834,447.5 403.5,447C 412.539,443.934 416.539,437.6 415.5,428C 415.497,425.31 415.164,422.81 414.5,420.5C 415.658,364.207 415.825,307.874 415,251.5C 413.65,246.815 410.817,243.315 406.5,241C 302.89,239.507 199.223,239.007 95.5,239.5C 95.3333,167.499 95.5,95.4992 96,23.5C 97.3923,17.7863 100.059,12.7863 104,8.5C 108.6,4.37379 113.766,1.37379 119.5,-0.5 Z"/></g>
<g><path style="opacity:1" fill="#b0b7bd" d="M 351.5,-0.5 C 351.833,-0.5 352.167,-0.5 352.5,-0.5C 394.5,41.8333 436.5,84.1667 478.5,126.5C 447.338,127.498 416.004,127.832 384.5,127.5C 368.065,126.576 357.231,118.243 352,102.5C 351.5,68.1683 351.333,33.835 351.5,-0.5 Z"/></g>
<g><path style="opacity:1" fill="#c9d0d7" d="M 478.5,126.5 C 479.498,158.329 479.832,190.329 479.5,222.5C 447.5,191.167 415.833,159.5 384.5,127.5C 416.004,127.832 447.338,127.498 478.5,126.5 Z"/></g>
<g><path style="opacity:1" fill="#f7b84e" d="M 95.5,239.5 C 199.223,239.007 302.89,239.507 406.5,241C 410.817,243.315 413.65,246.815 415,251.5C 415.825,307.874 415.658,364.207 414.5,420.5C 412.551,426.279 408.551,429.779 402.5,431C 300.167,431.5 197.834,431.667 95.5,431.5C 77.4969,431.667 59.4969,431.5 41.5,431C 37,429.167 33.8333,426 32,421.5C 31.3333,364.167 31.3333,306.833 32,249.5C 33.8333,245 37,241.833 41.5,240C 59.4969,239.5 77.4969,239.333 95.5,239.5 Z"/></g>
<g><path style="opacity:1" fill="#fffdfb" d="M 118.5,291.5 C 130.396,290.156 141.73,291.99 152.5,297C 159.111,302.18 159.111,307.18 152.5,312C 151.167,312.667 149.833,312.667 148.5,312C 138.213,306.171 127.546,305.171 116.5,309C 111.553,313.685 111.22,318.685 115.5,324C 127.621,329.118 139.955,333.785 152.5,338C 162.446,344.154 165.946,352.987 163,364.5C 158.122,377.548 148.622,384.714 134.5,386C 122.417,387.241 111.083,384.907 100.5,379C 91.8198,371.591 92.6531,365.757 103,361.5C 107.548,363.524 112.048,365.691 116.5,368C 122.98,370.294 129.647,370.961 136.5,370C 144.664,367.832 147.83,362.666 146,354.5C 144.833,352.667 143.333,351.167 141.5,350C 129.545,346.428 117.878,342.095 106.5,337C 97.2077,330.129 94.0411,320.962 97,309.5C 101.391,300.071 108.558,294.071 118.5,291.5 Z"/></g>
<g><path style="opacity:1" fill="#fffdfb" d="M 307.5,292.5 C 322.665,291.163 335.499,295.829 346,306.5C 347.333,313.167 344.666,317.167 338,318.5C 332.435,314.965 326.602,311.799 320.5,309C 302.712,307.124 290.878,314.624 285,331.5C 283.097,358.598 295.597,370.765 322.5,368C 325.895,366.885 329.061,365.385 332,363.5C 332.499,358.177 332.666,352.844 332.5,347.5C 324.826,347.666 317.159,347.5 309.5,347C 303.579,340.605 304.579,335.605 312.5,332C 321.833,331.333 331.167,331.333 340.5,332C 343.034,332.516 345.2,333.683 347,335.5C 348.6,346.761 348.933,358.094 348,369.5C 343.564,375.482 337.731,379.648 330.5,382C 312.143,387.747 295.476,384.747 280.5,373C 269.552,359.792 265.719,344.625 269,327.5C 275.072,308.255 287.906,296.589 307.5,292.5 Z"/></g>
<g><path style="opacity:1" fill="#fefdfc" d="M 179.5,294.5 C 184.347,293.84 188.181,295.507 191,299.5C 199.409,319.315 208.076,338.981 217,358.5C 225.116,338.267 233.783,318.267 243,298.5C 247.963,293.288 252.963,293.288 258,298.5C 258.667,301.167 258.667,303.833 258,306.5C 246.667,331.167 235.333,355.833 224,380.5C 218.264,386.157 213.264,385.491 209,378.5C 197.939,354.712 186.606,331.045 175,307.5C 173.379,301.923 174.879,297.589 179.5,294.5 Z"/></g>
<g><path style="opacity:1" fill="#cad1d7" d="M 414.5,420.5 C 415.164,422.81 415.497,425.31 415.5,428C 416.539,437.6 412.539,443.934 403.5,447C 300.834,447.5 198.167,447.667 95.5,447.5C 95.5,442.167 95.5,436.833 95.5,431.5C 197.834,431.667 300.167,431.5 402.5,431C 408.551,429.779 412.551,426.279 414.5,420.5 Z"/></g>
</svg>
