<?xml version="1.0" encoding="UTF-8"?>
<!DOCTYPE svg PUBLIC "-//W3C//DTD SVG 1.1//EN" "http://www.w3.org/Graphics/SVG/1.1/DTD/svg11.dtd">
<svg xmlns="http://www.w3.org/2000/svg" version="1.1" width="512px" height="512px" style="shape-rendering:geometricPrecision; text-rendering:geometricPrecision; image-rendering:optimizeQuality; fill-rule:evenodd; clip-rule:evenodd" xmlns:xlink="http://www.w3.org/1999/xlink">
<g><path style="opacity:0.997" fill="#ff6600" d="M 118.5,-0.5 C 179.5,-0.5 240.5,-0.5 301.5,-0.5C 301.168,49.6694 301.501,99.6694 302.5,149.5C 350.167,149.5 397.833,149.5 445.5,149.5C 446.167,149.5 446.833,149.5 447.5,149.5C 447.985,252.86 447.485,356.193 446,459.5C 438.441,487.561 420.608,504.894 392.5,511.5C 301.167,511.5 209.833,511.5 118.5,511.5C 90.3922,504.894 72.5588,487.561 65,459.5C 63.8451,391.526 63.3451,323.526 63.5,255.5C 63.3451,187.474 63.8451,119.474 65,51.5C 72.5588,23.4392 90.3922,6.1059 118.5,-0.5 Z"/></g>
<g><path style="opacity:1" fill="#ff8738" d="M 301.5,-0.5 C 302.167,-0.5 302.833,-0.5 303.5,-0.5C 306.167,2.5 308.833,5.5 311.5,8.5C 308.269,6.78013 305.436,4.4468 303,1.5C 302.5,50.8322 302.333,100.166 302.5,149.5C 301.501,99.6694 301.168,49.6694 301.5,-0.5 Z"/></g>
<g><path style="opacity:1" fill="#ff944d" d="M 311.5,8.5 C 336.167,34.1667 360.833,59.8333 385.5,85.5C 388.77,90.4397 392.77,94.7731 397.5,98.5C 401.167,101.5 404.5,104.833 407.5,108.5C 413.443,116.111 420.109,123.111 427.5,129.5C 428.5,129.833 429.167,130.5 429.5,131.5C 434.44,137.778 439.773,143.778 445.5,149.5C 397.833,149.5 350.167,149.5 302.5,149.5C 302.333,100.166 302.5,50.8322 303,1.5C 305.436,4.4468 308.269,6.78013 311.5,8.5 Z"/></g>
<g><path style="opacity:0.514" fill="#ffe0cb" d="M 385.5,85.5 C 390.23,89.2269 394.23,93.5603 397.5,98.5C 392.77,94.7731 388.77,90.4397 385.5,85.5 Z"/></g>
<g><path style="opacity:0.2" fill="#fff0e5" d="M 407.5,108.5 C 414.891,114.889 421.557,121.889 427.5,129.5C 420.109,123.111 413.443,116.111 407.5,108.5 Z"/></g>
<g><path style="opacity:0.588" fill="#ffe5d4" d="M 429.5,131.5 C 435.833,137.167 441.833,143.167 447.5,149.5C 446.833,149.5 446.167,149.5 445.5,149.5C 439.773,143.778 434.44,137.778 429.5,131.5 Z"/></g>
<g><path style="opacity:1" fill="#fffdfb" d="M 156.5,263.5 C 172.605,260.984 186.105,265.65 197,277.5C 199.027,280.221 200.527,283.221 201.5,286.5C 194.486,290.282 187.153,293.282 179.5,295.5C 176.752,285.309 170.086,281.475 159.5,284C 154.167,287.667 154.167,291.333 159.5,295C 169.898,297.133 179.898,300.466 189.5,305C 202.424,316.034 204.924,329.2 197,344.5C 184.49,356.886 169.656,360.719 152.5,356C 139.064,351.072 131.397,341.572 129.5,327.5C 135.734,326.145 141.901,324.479 148,322.5C 148.772,322.645 149.439,322.978 150,323.5C 153.006,335.26 160.506,339.76 172.5,337C 178.29,333.468 178.957,329.135 174.5,324C 163.942,320.592 153.609,316.592 143.5,312C 133.697,304.6 130.197,294.767 133,282.5C 137.769,272.22 145.603,265.886 156.5,263.5 Z"/></g>
<g><path style="opacity:1" fill="#fffdfc" d="M 357.5,324.5 C 350.352,323.508 343.019,323.175 335.5,323.5C 335.5,317.5 335.5,311.5 335.5,305.5C 350.167,305.5 364.833,305.5 379.5,305.5C 379.5,322.5 379.5,339.5 379.5,356.5C 372.5,356.5 365.5,356.5 358.5,356.5C 358.808,354.076 358.474,351.743 357.5,349.5C 356.893,349.624 356.56,349.957 356.5,350.5C 350.469,355.898 343.303,358.232 335,357.5C 315.884,357.377 302.217,348.71 294,331.5C 285.763,308.323 290.597,288.49 308.5,272C 326.236,261.768 344.57,260.768 363.5,269C 373.99,274.944 379.656,283.777 380.5,295.5C 373.293,297.107 366.127,298.774 359,300.5C 354.627,287.144 345.46,281.644 331.5,284C 317.852,289.56 312.018,299.726 314,314.5C 317.405,333.625 328.571,340.791 347.5,336C 352.844,333.829 356.177,329.996 357.5,324.5 Z"/></g>
<g><path style="opacity:1" fill="#fffdfc" d="M 203.5,264.5 C 211.5,264.5 219.5,264.5 227.5,264.5C 233.426,285.28 239.76,305.947 246.5,326.5C 253.294,306.285 259.794,285.951 266,265.5C 274.088,264.352 282.254,264.185 290.5,265C 279.137,295.255 268.47,325.755 258.5,356.5C 250.58,356.815 242.747,356.482 235,355.5C 224.39,325.169 213.89,294.836 203.5,264.5 Z"/></g>
<g><path style="opacity:1" fill="#ffc9a6" d="M 335.5,305.5 C 335.5,311.5 335.5,317.5 335.5,323.5C 343.019,323.175 350.352,323.508 357.5,324.5C 349.833,324.5 342.167,324.5 334.5,324.5C 334.177,317.978 334.51,311.645 335.5,305.5 Z"/></g>
<g><path style="opacity:1" fill="#ffaa71" d="M 356.5,350.5 C 356.56,349.957 356.893,349.624 357.5,349.5C 358.474,351.743 358.808,354.076 358.5,356.5C 357.833,354.5 357.167,352.5 356.5,350.5 Z"/></g>
</svg>
