<?xml version="1.0" encoding="UTF-8"?>
<!DOCTYPE svg PUBLIC "-//W3C//DTD SVG 1.1//EN" "http://www.w3.org/Graphics/SVG/1.1/DTD/svg11.dtd">
<svg xmlns="http://www.w3.org/2000/svg" version="1.1" width="512px" height="512px" style="shape-rendering:geometricPrecision; text-rendering:geometricPrecision; image-rendering:optimizeQuality; fill-rule:evenodd; clip-rule:evenodd" xmlns:xlink="http://www.w3.org/1999/xlink">
<g><path style="opacity:0.991" fill="#010101" d="M 85.5,-0.5 C 180.5,-0.5 275.5,-0.5 370.5,-0.5C 395.133,23.2998 419.3,47.6331 443,72.5C 443.5,133.499 443.667,194.499 443.5,255.5C 460.21,252.43 471.377,258.764 477,274.5C 477.667,330.167 477.667,385.833 477,441.5C 471.071,456.722 459.905,463.055 443.5,460.5C 443.936,472.243 443.436,483.91 442,495.5C 438.472,503.535 432.639,508.868 424.5,511.5C 311.833,511.5 199.167,511.5 86.5,511.5C 78.3609,508.868 72.5276,503.535 69,495.5C 67.5645,483.91 67.0645,472.243 67.5,460.5C 51.0952,463.055 39.9286,456.722 34,441.5C 33.3333,385.833 33.3333,330.167 34,274.5C 39.6231,258.764 50.7898,252.43 67.5,255.5C 67.3333,176.499 67.5,97.4993 68,18.5C 70.9552,9.38309 76.7885,3.04976 85.5,-0.5 Z"/></g>
<g><path style="opacity:1" fill="#f3f3f3" d="M 380.5,84.5 C 389.986,85.4938 399.652,85.8271 409.5,85.5C 409.5,153.5 409.5,221.5 409.5,289.5C 301.167,289.5 192.833,289.5 84.5,289.5C 84.0052,199.752 84.5052,110.085 86,20.5C 87.214,18.9512 88.714,17.7845 90.5,17C 179.499,16.5 268.499,16.3333 357.5,16.5C 357.333,31.837 357.5,47.1703 358,62.5C 360.766,74.7671 368.266,82.1004 380.5,84.5 Z"/></g>
<g><path style="opacity:1" fill="#c8d0d4" d="M 374.5,28.5 C 387.632,41.1314 400.632,53.9647 413.5,67C 402.167,67.6667 390.833,67.6667 379.5,67C 377.622,65.4571 376.122,63.6238 375,61.5C 374.5,50.505 374.333,39.505 374.5,28.5 Z"/></g>
<g><path style="opacity:1" fill="#ced8db" d="M 409.5,85.5 C 414.833,85.5 420.167,85.5 425.5,85.5C 425.5,153.5 425.5,221.5 425.5,289.5C 420.167,289.5 414.833,289.5 409.5,289.5C 409.5,221.5 409.5,153.5 409.5,85.5 Z"/></g>
<g><path style="opacity:1" fill="#8c9194" d="M 380.5,84.5 C 395.833,84.5 411.167,84.5 426.5,84.5C 426.833,153.002 426.499,221.335 425.5,289.5C 425.5,221.5 425.5,153.5 425.5,85.5C 420.167,85.5 414.833,85.5 409.5,85.5C 399.652,85.8271 389.986,85.4938 380.5,84.5 Z"/></g>
<g><path style="opacity:1" fill="#000000" d="M 115.5,110.5 C 208.501,110.333 301.501,110.5 394.5,111C 400.453,113.525 401.953,117.691 399,123.5C 397.786,125.049 396.286,126.215 394.5,127C 301.5,127.667 208.5,127.667 115.5,127C 108.856,121.375 108.856,115.875 115.5,110.5 Z"/></g>
<g><path style="opacity:1" fill="#070707" d="M 115.5,153.5 C 208.834,153.333 302.167,153.5 395.5,154C 400.568,156.983 401.735,161.149 399,166.5C 397.786,168.049 396.286,169.215 394.5,170C 301.833,170.667 209.167,170.667 116.5,170C 108.937,164.827 108.604,159.327 115.5,153.5 Z"/></g>
<g><path style="opacity:1" fill="#050505" d="M 116.5,195.5 C 209.167,195.333 301.834,195.5 394.5,196C 400.372,199.016 401.872,203.516 399,209.5C 398.097,210.701 396.931,211.535 395.5,212C 302.167,212.667 208.833,212.667 115.5,212C 108.632,206.144 108.965,200.644 116.5,195.5 Z"/></g>
<g><path style="opacity:1" fill="#000000" d="M 115.5,238.5 C 174.501,238.333 233.501,238.5 292.5,239C 296.238,240.399 297.904,243.066 297.5,247C 297.802,251.368 295.802,254.035 291.5,255C 232.833,255.667 174.167,255.667 115.5,255C 108.856,249.375 108.856,243.875 115.5,238.5 Z"/></g>
<g><path style="opacity:1" fill="#00808c" d="M 56.5,272.5 C 60.1667,272.5 63.8333,272.5 67.5,272.5C 67.5,278.167 67.5,283.833 67.5,289.5C 63.4862,289.666 59.4862,289.499 55.5,289C 48.6707,283.003 49.004,277.503 56.5,272.5 Z"/></g>
<g><path style="opacity:1" fill="#00808c" d="M 443.5,272.5 C 447.182,272.335 450.848,272.501 454.5,273C 461.538,277.186 462.205,282.186 456.5,288C 452.3,289.367 447.967,289.867 443.5,289.5C 443.5,283.833 443.5,278.167 443.5,272.5 Z"/></g>
<g><path style="opacity:1" fill="#00bbd3" d="M 57.5,306.5 C 185.999,307.5 314.666,307.833 443.5,307.5C 443.667,351.168 443.5,394.835 443,438.5C 442.5,439.5 442,440.5 441.5,441.5C 313.168,442.5 184.835,442.833 56.5,442.5C 53.909,441.746 52.0757,440.079 51,437.5C 50.1667,393.496 50.3334,349.496 51.5,305.5C 53.4086,306.348 55.4086,306.682 57.5,306.5 Z"/></g>
<g><path style="opacity:1" fill="#008491" d="M 56.5,442.5 C 184.835,442.833 313.168,442.5 441.5,441.5C 442,440.5 442.5,439.5 443,438.5C 443.5,394.835 443.667,351.168 443.5,307.5C 314.666,307.833 185.999,307.5 57.5,306.5C 191.855,306.827 326.188,306.493 460.5,305.5C 460.667,349.501 460.5,393.501 460,437.5C 458.833,440 457,441.833 454.5,443C 321.666,443.833 188.999,443.666 56.5,442.5 Z"/></g>
<g><path style="opacity:1" fill="#010506" d="M 153.5,419.5 C 153.5,393.167 153.5,366.833 153.5,340.5C 147.167,340.5 140.833,340.5 134.5,340.5C 129.833,339.661 127.5,336.828 127.5,332C 127.795,329.077 129.129,326.743 131.5,325C 141.405,323.857 151.405,323.357 161.5,323.5C 170.833,323.667 180.167,323.833 189.5,324C 194.945,326.11 196.778,329.944 195,335.5C 194.167,337.667 192.667,339.167 190.5,340C 183.842,340.5 177.175,340.666 170.5,340.5C 170.667,366.835 170.5,393.169 170,419.5C 164.423,428.777 158.923,428.777 153.5,419.5 Z"/></g>
<g><path style="opacity:1" fill="#010404" d="M 218.5,323.5 C 221.39,323.278 224.057,323.945 226.5,325.5C 235.939,337.391 245.605,349.058 255.5,360.5C 265.371,349.459 274.705,337.959 283.5,326C 290.773,322.132 295.773,324.132 298.5,332C 298.375,333.627 297.875,335.127 297,336.5C 286.833,349.333 276.667,362.167 266.5,375C 275.974,387.441 285.807,399.608 296,411.5C 299.385,415.798 299.219,419.965 295.5,424C 292.298,425.483 288.964,425.817 285.5,425C 275.658,412.995 265.658,401.162 255.5,389.5C 245.342,401.162 235.342,412.995 225.5,425C 218.638,427.229 214.304,424.729 212.5,417.5C 213.054,415.39 213.888,413.39 215,411.5C 225.193,399.608 235.026,387.441 244.5,375C 234.333,362.167 224.167,349.333 214,336.5C 212.627,334.305 212.294,331.971 213,329.5C 214.36,326.977 216.193,324.977 218.5,323.5 Z"/></g>
<g><path style="opacity:1" fill="#010506" d="M 376.5,340.5 C 370.167,340.5 363.833,340.5 357.5,340.5C 357.5,366.833 357.5,393.167 357.5,419.5C 354.533,426.49 349.866,427.99 343.5,424C 342.54,422.581 341.707,421.081 341,419.5C 340.5,393.169 340.333,366.835 340.5,340.5C 333.825,340.666 327.158,340.5 320.5,340C 315.931,337.459 314.431,333.625 316,328.5C 317.543,326.622 319.376,325.122 321.5,324C 330.833,323.833 340.167,323.667 349.5,323.5C 359.595,323.357 369.595,323.857 379.5,325C 384.166,329.006 384.666,333.506 381,338.5C 379.67,339.582 378.17,340.249 376.5,340.5 Z"/></g>
<g><path style="opacity:1" fill="#007281" d="M 134.5,340.5 C 140.833,340.5 147.167,340.5 153.5,340.5C 153.5,366.833 153.5,393.167 153.5,419.5C 152.502,393.672 152.169,367.672 152.5,341.5C 146.31,341.823 140.31,341.49 134.5,340.5 Z"/></g>
<g><path style="opacity:1" fill="#007281" d="M 376.5,340.5 C 370.69,341.49 364.69,341.823 358.5,341.5C 358.831,367.672 358.498,393.672 357.5,419.5C 357.5,393.167 357.5,366.833 357.5,340.5C 363.833,340.5 370.167,340.5 376.5,340.5 Z"/></g>
<g><path style="opacity:1" fill="#f4f4f4" d="M 409.5,460.5 C 410.021,471.951 409.354,483.285 407.5,494.5C 301.833,494.667 196.166,494.5 90.5,494C 88,492.833 86.1667,491 85,488.5C 84.5002,479.173 84.3335,469.839 84.5,460.5C 192.833,460.5 301.167,460.5 409.5,460.5 Z"/></g>
<g><path style="opacity:1" fill="#cad3d7" d="M 409.5,460.5 C 415.167,460.5 420.833,460.5 426.5,460.5C 426.949,470.605 426.449,480.605 425,490.5C 423.786,492.049 422.286,493.215 420.5,494C 416.179,494.499 411.846,494.666 407.5,494.5C 409.354,483.285 410.021,471.951 409.5,460.5 Z"/></g>
</svg>
