<?xml version="1.0" encoding="UTF-8"?>
<!DOCTYPE svg PUBLIC "-//W3C//DTD SVG 1.1//EN" "http://www.w3.org/Graphics/SVG/1.1/DTD/svg11.dtd">
<svg xmlns="http://www.w3.org/2000/svg" version="1.1" width="512px" height="512px" style="shape-rendering:geometricPrecision; text-rendering:geometricPrecision; image-rendering:optimizeQuality; fill-rule:evenodd; clip-rule:evenodd" xmlns:xlink="http://www.w3.org/1999/xlink">
<g><path style="opacity:0.996" fill="#020201" d="M 129.5,-0.5 C 245.5,-0.5 361.5,-0.5 477.5,-0.5C 481.811,1.6467 484.978,4.98004 487,9.5C 487.667,162.833 487.667,316.167 487,469.5C 485.167,474 482,477.167 477.5,479C 470.174,479.5 462.841,479.666 455.5,479.5C 455.666,486.841 455.5,494.174 455,501.5C 452.978,506.02 449.811,509.353 445.5,511.5C 329.5,511.5 213.5,511.5 97.5,511.5C 93.189,509.353 90.0223,506.02 88,501.5C 87.5001,488.838 87.3334,476.171 87.5,463.5C 74.1625,463.667 60.8292,463.5 47.5,463C 34.9912,459.825 27.1578,451.991 24,439.5C 23.3333,386.167 23.3333,332.833 24,279.5C 27.4059,268.427 34.5726,260.927 45.5,257C 59.4406,255.571 73.4406,255.071 87.5,255.5C 87.3333,184.166 87.5,112.833 88,41.5C 89.8333,37 93,33.8333 97.5,32C 104.826,31.5003 112.159,31.3337 119.5,31.5C 119.334,24.1591 119.5,16.8258 120,9.5C 122.022,4.98004 125.189,1.6467 129.5,-0.5 Z"/></g>
<g><path style="opacity:1" fill="#fedf76" d="M 455.5,14.5 C 455.5,49.8333 455.5,85.1667 455.5,120.5C 453.963,117.1 452.13,113.767 450,110.5C 425.5,86 401,61.5 376.5,37C 373.446,34.8061 370.112,33.1395 366.5,32C 289.167,31.5 211.834,31.3333 134.5,31.5C 134.5,25.8333 134.5,20.1667 134.5,14.5C 241.5,14.5 348.5,14.5 455.5,14.5 Z"/></g>
<g><path style="opacity:1" fill="#fecf5b" d="M 455.5,14.5 C 460.833,14.5 466.167,14.5 471.5,14.5C 471.5,164.167 471.5,313.833 471.5,463.5C 466.167,463.5 460.833,463.5 455.5,463.5C 455.854,459.363 455.354,455.363 454,451.5C 452.266,449.549 450.099,448.549 447.5,448.5C 447.5,442.833 447.5,437.167 447.5,431.5C 451.637,431.518 454.137,429.518 455,425.5C 455.5,323.834 455.667,222.167 455.5,120.5C 455.5,85.1667 455.5,49.8333 455.5,14.5 Z"/></g>
<g><path style="opacity:1" fill="#f2c556" d="M 471.5,14.5 C 472.5,164.332 472.833,314.332 472.5,464.5C 466.642,464.822 460.975,464.489 455.5,463.5C 460.833,463.5 466.167,463.5 471.5,463.5C 471.5,313.833 471.5,164.167 471.5,14.5 Z"/></g>
<g><path style="opacity:1" fill="#ebe9eb" d="M 254.5,142.5 C 257.287,143.477 260.287,143.81 263.5,143.5C 263.5,148.833 263.5,154.167 263.5,159.5C 259.958,159.187 256.625,159.521 253.5,160.5C 250.155,161.348 248.488,163.515 248.5,167C 248.318,170.82 249.985,173.32 253.5,174.5C 256.625,175.479 259.958,175.813 263.5,175.5C 263.5,180.833 263.5,186.167 263.5,191.5C 259.958,191.187 256.625,191.521 253.5,192.5C 250.909,193.254 249.076,194.921 248,197.5C 246.313,214.682 244.48,231.849 242.5,249C 244.702,270.871 256.702,280.538 278.5,278C 295.521,271.808 302.688,259.641 300,241.5C 298.406,226.825 296.74,212.158 295,197.5C 293.833,195 292,193.167 289.5,192C 286.183,191.502 282.85,191.335 279.5,191.5C 279.5,186.167 279.5,180.833 279.5,175.5C 282.713,175.81 285.713,175.477 288.5,174.5C 293.987,172.862 295.82,169.195 294,163.5C 292.786,161.951 291.286,160.785 289.5,160C 286.183,159.502 282.85,159.335 279.5,159.5C 279.5,153.833 279.5,148.167 279.5,142.5C 283.182,142.665 286.848,142.499 290.5,142C 294.212,139.487 295.378,135.987 294,131.5C 293.167,130.667 292.333,129.833 291.5,129C 287.637,127.646 283.637,127.146 279.5,127.5C 279.5,121.833 279.5,116.167 279.5,110.5C 283.182,110.665 286.848,110.499 290.5,110C 294.212,107.487 295.378,103.987 294,99.5C 293.167,98.6667 292.333,97.8333 291.5,97C 287.637,95.6463 283.637,95.1463 279.5,95.5C 279.5,89.8333 279.5,84.1667 279.5,78.5C 283.182,78.6653 286.848,78.4986 290.5,78C 294.212,75.487 295.378,71.987 294,67.5C 293.167,66.6667 292.333,65.8333 291.5,65C 287.637,63.6463 283.637,63.1463 279.5,63.5C 279.5,57.8333 279.5,52.1667 279.5,46.5C 303.833,46.5 328.167,46.5 352.5,46.5C 352.333,69.8357 352.5,93.169 353,116.5C 355.958,126.961 362.792,132.961 373.5,134.5C 389.992,135.497 406.658,135.83 423.5,135.5C 423.667,237.501 423.5,339.501 423,441.5C 417.942,460.892 405.775,473.392 386.5,479C 304.167,479.333 221.833,479.667 139.5,480C 130.194,482.143 123.861,487.643 120.5,496.5C 114.5,496.5 108.5,496.5 102.5,496.5C 102.5,485.5 102.5,474.5 102.5,463.5C 186.501,463.667 270.501,463.5 354.5,463C 365.54,460.961 372.373,454.461 375,443.5C 375.667,403.167 375.667,362.833 375,322.5C 372.5,313.333 366.667,307.5 357.5,305C 270.167,304.5 182.834,304.333 95.5,304.5C 96.0531,298.208 95.3864,292.208 93.5,286.5C 97.3547,287.155 100.188,285.821 102,282.5C 102.5,203.834 102.667,125.167 102.5,46.5C 156.5,46.5 210.5,46.5 264.5,46.5C 264.5,52.1667 264.5,57.8333 264.5,63.5C 260.486,63.3345 256.486,63.5012 252.5,64C 247.188,68.7609 247.188,73.4276 252.5,78C 256.486,78.4988 260.486,78.6655 264.5,78.5C 264.5,84.1667 264.5,89.8333 264.5,95.5C 260.486,95.3345 256.486,95.5012 252.5,96C 247.188,100.761 247.188,105.428 252.5,110C 256.486,110.499 260.486,110.666 264.5,110.5C 264.5,116.167 264.5,121.833 264.5,127.5C 260.818,127.335 257.152,127.501 253.5,128C 248.084,131.203 247.084,135.536 250.5,141C 251.745,141.791 253.078,142.291 254.5,142.5 Z"/></g>
<g><path style="opacity:1" fill="#403f40" d="M 368.5,50.5 C 367.503,70.9933 367.169,91.6599 367.5,112.5C 366.172,91.6628 366.172,70.6628 367.5,49.5C 368.107,49.6236 368.44,49.9569 368.5,50.5 Z"/></g>
<g><path style="opacity:1" fill="#d8d5d8" d="M 368.5,50.5 C 391.5,72.8333 414.167,95.5 436.5,118.5C 416.007,119.497 395.34,119.831 374.5,119.5C 370.5,118.833 368.167,116.5 367.5,112.5C 367.169,91.6599 367.503,70.9933 368.5,50.5 Z"/></g>
<g><path style="opacity:1" fill="#3a3a3a" d="M 436.5,118.5 C 437.043,118.56 437.376,118.893 437.5,119.5C 416.337,120.828 395.337,120.828 374.5,119.5C 395.34,119.831 416.007,119.497 436.5,118.5 Z"/></g>
<g><path style="opacity:1" fill="#dbd8db" d="M 423.5,135.5 C 428.833,135.5 434.167,135.5 439.5,135.5C 439.167,232.001 439.501,328.335 440.5,424.5C 441.167,428.5 443.5,430.833 447.5,431.5C 447.5,437.167 447.5,442.833 447.5,448.5C 444.737,448.744 442.571,450.077 441,452.5C 440.5,467.163 440.333,481.83 440.5,496.5C 333.833,496.5 227.167,496.5 120.5,496.5C 123.861,487.643 130.194,482.143 139.5,480C 221.833,479.667 304.167,479.333 386.5,479C 405.775,473.392 417.942,460.892 423,441.5C 423.5,339.501 423.667,237.501 423.5,135.5 Z"/></g>
<g><path style="opacity:1" fill="#bfbcbf" d="M 373.5,134.5 C 395.833,134.5 418.167,134.5 440.5,134.5C 440.5,231.167 440.5,327.833 440.5,424.5C 439.501,328.335 439.167,232.001 439.5,135.5C 434.167,135.5 428.833,135.5 423.5,135.5C 406.658,135.83 389.992,135.497 373.5,134.5 Z"/></g>
<g><path style="opacity:1" fill="#7a797a" d="M 254.5,142.5 C 257.833,142.5 261.167,142.5 264.5,142.5C 264.5,148.5 264.5,154.5 264.5,160.5C 260.833,160.5 257.167,160.5 253.5,160.5C 256.625,159.521 259.958,159.187 263.5,159.5C 263.5,154.167 263.5,148.833 263.5,143.5C 260.287,143.81 257.287,143.477 254.5,142.5 Z"/></g>
<g><path style="opacity:1" fill="#7b7a7b" d="M 253.5,174.5 C 257.167,174.5 260.833,174.5 264.5,174.5C 264.5,180.5 264.5,186.5 264.5,192.5C 260.833,192.5 257.167,192.5 253.5,192.5C 256.625,191.521 259.958,191.187 263.5,191.5C 263.5,186.167 263.5,180.833 263.5,175.5C 259.958,175.813 256.625,175.479 253.5,174.5 Z"/></g>
<g><path style="opacity:1" fill="#787778" d="M 288.5,174.5 C 285.713,175.477 282.713,175.81 279.5,175.5C 279.5,180.833 279.5,186.167 279.5,191.5C 278.511,186.025 278.178,180.358 278.5,174.5C 281.833,174.5 285.167,174.5 288.5,174.5 Z"/></g>
<g><path style="opacity:1" fill="#958345" d="M 262.5,207.5 C 268.645,206.51 274.978,206.177 281.5,206.5C 281.5,207.833 281.5,209.167 281.5,210.5C 280.596,209.791 280.263,208.791 280.5,207.5C 274.5,207.5 268.5,207.5 262.5,207.5 Z"/></g>
<g><path style="opacity:1" fill="#fadc75" d="M 262.5,207.5 C 268.5,207.5 274.5,207.5 280.5,207.5C 280.263,208.791 280.596,209.791 281.5,210.5C 283.22,225.143 284.387,239.81 285,254.5C 280.936,262.61 274.436,265.443 265.5,263C 259.688,259.71 257.021,254.71 257.5,248C 258.56,234.28 260.226,220.78 262.5,207.5 Z"/></g>
<g><path style="opacity:1" fill="#f7ca58" d="M 93.5,286.5 C 95.3864,292.208 96.0531,298.208 95.5,304.5C 80.8295,304.667 66.1629,304.5 51.5,304C 39.2746,299.053 35.7746,290.553 41,278.5C 43.7076,274.896 47.2076,272.396 51.5,271C 63.4954,270.5 75.4954,270.333 87.5,270.5C 87.3347,274.182 87.5014,277.848 88,281.5C 89.0757,284.079 90.909,285.746 93.5,286.5 Z"/></g>
<g><path style="opacity:1" fill="#fdde76" d="M 343.5,319.5 C 343.667,348.169 343.5,376.835 343,405.5C 340.042,418.459 332.209,426.959 319.5,431C 237.833,431.333 156.167,431.667 74.5,432C 65.7507,434.586 59.7507,440.086 56.5,448.5C 48.0821,448.246 42.2487,444.246 39,436.5C 38.3333,395.833 38.3333,355.167 39,314.5C 42.2367,316.58 45.7367,318.08 49.5,319C 147.499,319.5 245.499,319.667 343.5,319.5 Z"/></g>
<g><path style="opacity:1" fill="#fdce5a" d="M 343.5,319.5 C 347.514,319.334 351.514,319.501 355.5,320C 357.552,320.93 359.052,322.43 360,324.5C 360.667,363.833 360.667,403.167 360,442.5C 359.215,444.286 358.049,445.786 356.5,447C 256.557,448.493 156.557,448.993 56.5,448.5C 59.7507,440.086 65.7507,434.586 74.5,432C 156.167,431.667 237.833,431.333 319.5,431C 332.209,426.959 340.042,418.459 343,405.5C 343.5,376.835 343.667,348.169 343.5,319.5 Z"/></g>
<g><path style="opacity:1" fill="#010000" d="M 210.5,344.5 C 214.684,343.704 217.85,345.037 220,348.5C 220.667,371.833 220.667,395.167 220,418.5C 217.487,422.212 213.987,423.378 209.5,422C 208.667,421.167 207.833,420.333 207,419.5C 206.333,395.833 206.333,372.167 207,348.5C 207.69,346.65 208.856,345.316 210.5,344.5 Z"/></g>
<g><path style="opacity:1" fill="#040402" d="M 154.5,405.5 C 153.733,406.172 153.066,407.005 152.5,408C 162.161,408.5 171.828,408.666 181.5,408.5C 188.388,410.073 190.221,414.073 187,420.5C 186.097,421.701 184.931,422.535 183.5,423C 167.833,423.667 152.167,423.667 136.5,423C 131.311,420.087 130.144,415.92 133,410.5C 144.043,393.581 155.209,376.747 166.5,360C 156.5,359.667 146.5,359.333 136.5,359C 130.938,353.837 131.271,349.171 137.5,345C 152.5,344.333 167.5,344.333 182.5,345C 187.038,346.713 188.538,349.88 187,354.5C 176.156,371.528 165.323,388.528 154.5,405.5 Z"/></g>
<g><path style="opacity:1" fill="#030201" d="M 247.5,344.5 C 255.507,344.334 263.507,344.5 271.5,345C 288.929,349.693 295.763,360.86 292,378.5C 284.765,392.431 273.265,398.098 257.5,395.5C 257.906,403.917 257.406,412.251 256,420.5C 250.879,424.875 246.545,424.209 243,418.5C 242.333,395.167 242.333,371.833 243,348.5C 244.397,346.93 245.897,345.596 247.5,344.5 Z"/></g>
<g><path style="opacity:1" fill="#fbdd75" d="M 257.5,359.5 C 262.93,359.161 268.264,359.661 273.5,361C 280.065,366.965 280.065,372.965 273.5,379C 268.264,380.339 262.93,380.839 257.5,380.5C 257.5,373.5 257.5,366.5 257.5,359.5 Z"/></g>
<g><path style="opacity:1" fill="#cab15e" d="M 154.5,405.5 C 163.287,407.156 172.287,408.156 181.5,408.5C 171.828,408.666 162.161,408.5 152.5,408C 153.066,407.005 153.733,406.172 154.5,405.5 Z"/></g>
<g><path style="opacity:1" fill="#0c0a05" d="M 98.5,408.5 C 106.161,407.663 109.661,410.996 109,418.5C 104.383,425.152 99.7168,425.152 95,418.5C 94.1822,414.469 95.3489,411.136 98.5,408.5 Z"/></g>
</svg>
